<?xml version="1.0" standalone="no"?>
  <!DOCTYPE svg PUBLIC "-//W3C//DTD SVG 1.1//EN" "http://www.w3.org/Graphics/SVG/1.1/DTD/svg11.dtd" >
  <svg>
  <metadata>
  Created by font-carrier
  </metadata>
  <defs>
  <font id="Gilroy-ExtraBold" horiz-adv-x="1164" vert-adv-y="1164" >
    <font-face
      
      font-family="Gilroy ExtraBold"
      
      font-weight="400"
      
      font-stretch="normal"
      
      units-per-em="1000"
      
      ascent="955"
      
      descent="-270"
      
    />
      <missing-glyph />

      

      
      <glyph glyph-name="uni21" unicode="&#x21;" d="M80 250L50 500L50 700L230 700L230 500L200 250L80 250M207 14Q207 14 193 0Q179-14 140-14Q101-14 73 14Q45 42 45 81Q45 120 73 148Q101 176 140 176Q179 176 207 148Q235 120 235 81Q235 42 207 14Z"  horiz-adv-x="280" vert-adv-y="1000"  />

      
      <glyph glyph-name="uni22" unicode="&#x22;" d="M60 460L40 700L180 700L160 460L60 460M240 460L220 700L360 700L340 460L240 460Z"  horiz-adv-x="400" vert-adv-y="1000"  />

      
      <glyph glyph-name="uni23" unicode="&#x23;" d="M583 390L478 390L464 310L570 310L553 200L446 200L421 50L307 50L332 200L240 200L215 50L101 50L126 200L20 200L38 310L144 310L158 390L51 390L69 500L176 500L201 650L315 650L290 500L382 500L407 650L521 650L496 500L601 500L583 390M350 310L364 390L272 390L258 310L350 310Z"  horiz-adv-x="621" vert-adv-y="1000"  />

      
      <glyph glyph-name="uni24" unicode="&#x24;" d="M528 201Q528 110 471.50 54.50Q415-1 323-12L323-100L253-100L253-13Q168-7 107.50 35Q47 77 20 149L158 229Q190 156 253 145L253 283Q251 284 246.50 285.50Q242 287 240 288Q208 301 186 311.50Q164 322 136 341Q108 360 90.50 381.50Q73 403 61 435Q49 467 49 506Q49 598 108 651.50Q167 705 253 713L253 800L323 800L323 711Q464 693 520 566L385 487Q366 537 323 552L323 417Q328 415 356 403.50Q384 392 392.50 388Q401 384 425 371.50Q449 359 459 350Q469 341 485.50 324Q502 307 509 290.50Q516 274 522 251Q528 228 528 201M209 505Q209 475 253 450L253 555Q209 544 209 505M323 147Q368 159 368 199Q368 232 323 254L323 147Z"  horiz-adv-x="548" vert-adv-y="1000"  />

      
      <glyph glyph-name="uni25" unicode="&#x25;" d="M337.50 423.50Q337.50 423.50 312.75 398.75Q288 374 214 374Q140 374 90 423.50Q40 473 40 544Q40 615 90 664.50Q140 714 214 714Q288 714 337.50 665.50Q387 617 387 544Q387 473 337.50 423.50M123 110L575 610L641 572L189 71L123 110M175 505Q175 505 182.50 497Q190 489 213 489Q236 489 251.50 505.50Q267 522 267 544Q267 568 252 583.50Q237 599 213 599Q190 599 175 583Q160 567 160 544Q160 521 175 505M694.50 37.50Q694.50 37.50 669.75 12.75Q645-12 571-12Q497-12 447 37.50Q397 87 397 158Q397 229 447 278.50Q497 328 571 328Q645 328 694.50 278.50Q744 229 744 158Q744 87 694.50 37.50M532 119Q532 119 539.50 111Q547 103 570 103Q593 103 608.50 119.50Q624 136 624 158Q624 182 609 197.50Q594 213 570 213Q547 213 532 197Q517 181 517 158Q517 135 532 119Z"  horiz-adv-x="784" vert-adv-y="1000"  />

      
      <glyph glyph-name="uni26" unicode="&#x26;" d="M658 46L533-26L471 41Q392-14 290-14Q180-14 110 43Q40 100 40 197Q40 258 69.50 311Q99 364 152 398Q123 448 123 509Q123 598 185.50 656Q248 714 348 714Q426 714 486 675Q546 636 578 561L441 482Q412 558 350 558Q320 558 301.50 541.50Q283 525 283 499Q283 481 291.50 462.50Q300 444 309 433Q318 422 338 400L467 257Q488 305 500 367L634 291Q612 209 570 144L658 46M303 132Q342 132 373 148L245 286L239 292Q202 262 202 214Q202 177 227 154.50Q252 132 303 132Z"  horiz-adv-x="678" vert-adv-y="1000"  />

      
      <glyph glyph-name="uni27" unicode="&#x27;" d="M60 460L40 700L180 700L160 460L60 460Z"  horiz-adv-x="220" vert-adv-y="1000"  />

      
      <glyph glyph-name="uni28" unicode="&#x28;" d="M160-100Q50 120 50 350Q50 580 160 800L310 800Q200 580 200 350Q200 120 310-100L160-100Z"  horiz-adv-x="320" vert-adv-y="1000"  />

      
      <glyph glyph-name="uni29" unicode="&#x29;" d="M160-100L10-100Q120 120 120 350Q120 580 10 800L160 800Q270 580 270 350Q270 120 160-100Z"  horiz-adv-x="320" vert-adv-y="1000"  />

      
      <glyph glyph-name="uni2a" unicode="&#x2a;" d="M350 608L350 520L260 529L315 460L242 414L200 499L158 414L85 460L140 529L50 520L50 608L140 599L85 668L158 714L200 629L242 714L315 668L260 599L350 608Z"  horiz-adv-x="400" vert-adv-y="1000"  />

      
      <glyph glyph-name="uni2b" unicode="&#x2b;" d="M510 420L510 280L350 280L350 120L210 120L210 280L50 280L50 420L210 420L210 580L350 580L350 420L510 420Z"  horiz-adv-x="560" vert-adv-y="1000"  />

      
      <glyph glyph-name="uni2c" unicode="&#x2c;" d="M245 155L165-140L45-140L85 155L245 155Z"  horiz-adv-x="290" vert-adv-y="1000"  />

      
      <glyph glyph-name="uni2d" unicode="&#x2d;" d="M60 227L60 371L440 371L440 227L60 227Z"  horiz-adv-x="500" vert-adv-y="1000"  />

      
      <glyph glyph-name="uni2e" unicode="&#x2e;" d="M207 14Q207 14 193 0Q179-14 140-14Q101-14 73 14Q45 42 45 81Q45 120 73 148Q101 176 140 176Q179 176 207 148Q235 120 235 81Q235 42 207 14Z"  horiz-adv-x="280" vert-adv-y="1000"  />

      
      <glyph glyph-name="uni2f" unicode="&#x2f;" d="M90-100L30-100L430 800L490 800L90-100Z"  horiz-adv-x="520" vert-adv-y="1000"  />

      
      <glyph glyph-name="uni30" unicode="&#x30;" d="M524.50 85.50Q524.50 85.50 486.75 35.75Q449-14 315-14Q181-14 105.50 85.50Q30 185 30 350Q30 515 105.50 614.50Q181 714 315 714Q449 714 524.50 614.50Q600 515 600 350Q600 185 524.50 85.50M190 350Q190 350 190 246Q190 142 315 142Q440 142 440 350Q440 558 315 558Q190 558 190 350Z"  horiz-adv-x="630" vert-adv-y="1000"  />

      
      <glyph glyph-name="uni31" unicode="&#x31;" d="M193 700L333 700L333 0L173 0L173 531L49 497L10 634L193 700Z"  horiz-adv-x="403" vert-adv-y="1000"  />

      
      <glyph glyph-name="uni32" unicode="&#x32;" d="M22 0L22 116L257 360Q328 433 328 484Q328 517 308 537.50Q288 558 253 558Q183 558 150 482L15 561Q47 636 111 675Q175 714 251 714Q349 714 418.50 653.50Q488 593 488 491Q488 380 379 271L263 154L498 154L498 0L22 0Z"  horiz-adv-x="533" vert-adv-y="1000"  />

      
      <glyph glyph-name="uni33" unicode="&#x33;" d="M371 416Q438 393 479 341.50Q520 290 520 220Q520 110 446 48Q372-14 265-14Q182-14 116.50 24Q51 62 20 136L158 216Q184 142 265 142Q312 142 336 164Q360 186 360 220Q360 254 336 276Q312 298 265 298L232 298L171 389L298 550L42 550L42 700L492 700L492 570L371 416Z"  horiz-adv-x="550" vert-adv-y="1000"  />

      
      <glyph glyph-name="uni34" unicode="&#x34;" d="M570 260L570 112L500 112L500 0L338 0L338 112L20 112L20 260L243 700L415 700L192 260L338 260L338 410L500 410L500 260L570 260Z"  horiz-adv-x="580" vert-adv-y="1000"  />

      
      <glyph glyph-name="uni35" unicode="&#x35;" d="M285 454Q388 454 456.50 392.50Q525 331 525 220Q525 110 451 48Q377-14 270-14Q183-14 117 23.50Q51 61 20 136L158 216Q184 142 270 142Q317 142 341 164Q365 186 365 220Q365 254 342 276Q319 298 275 298L56 298L85 700L490 700L490 550L235 550L228 454L285 454Z"  horiz-adv-x="550" vert-adv-y="1000"  />

      
      <glyph glyph-name="uni36" unicode="&#x36;" d="M307 479Q411 471 475.50 403Q540 335 540 233Q540 124 467.50 55Q395-14 280-14Q164-14 92 55Q20 124 20 233Q20 314 61 375L275 700L459 700L307 479M209 162Q209 162 223.50 149Q238 136 280 136Q322 136 351 162.50Q380 189 380 233Q380 277 351 303.50Q322 330 280 330Q238 330 209 304Q180 278 180 233Q180 188 209 162Z"  horiz-adv-x="560" vert-adv-y="1000"  />

      
      <glyph glyph-name="uni37" unicode="&#x37;" d="M10 700L470 700L470 566L242 0L72 0L292 546L10 546L10 700Z"  horiz-adv-x="490" vert-adv-y="1000"  />

      
      <glyph glyph-name="uni38" unicode="&#x38;" d="M453 365Q544 306 544 197Q544 100 476.50 43Q409-14 287-14Q165-14 97.50 43Q30 100 30 197Q30 306 121 365Q54 417 54 506Q54 604 120 659Q186 714 287 714Q388 714 454 659Q520 604 520 506Q520 417 453 365M340 545Q340 545 330 554.50Q320 564 287 564Q254 564 234 545Q214 526 214 496Q214 466 234 447Q254 428 287 428Q320 428 340 447Q360 466 360 496Q360 526 340 545M217 158.50Q217 158.50 230.50 147.25Q244 136 287 136Q330 136 357 158.50Q384 181 384 220Q384 259 357 281.50Q330 304 287 304Q244 304 217 281.50Q190 259 190 220Q190 181 217 158.50Z"  horiz-adv-x="574" vert-adv-y="1000"  />

      
      <glyph glyph-name="uni39" unicode="&#x39;" d="M540 467Q540 386 499 325L285 0L101 0L253 221Q149 229 84.50 297Q20 365 20 467Q20 576 92.50 645Q165 714 280 714Q396 714 468 645Q540 576 540 467M209 537.50Q209 537.50 194.50 524.25Q180 511 180 467Q180 423 209 396.50Q238 370 280 370Q322 370 351 396Q380 422 380 467Q380 512 351 538Q322 564 280 564Q238 564 209 537.50Z"  horiz-adv-x="560" vert-adv-y="1000"  />

      
      <glyph glyph-name="uni3a" unicode="&#x3a;" d="M207 354Q207 354 193 340Q179 326 140 326Q101 326 73 354Q45 382 45 421Q45 460 73 488Q101 516 140 516Q179 516 207 488Q235 460 235 421Q235 382 207 354M207 14Q207 14 193 0Q179-14 140-14Q101-14 73 14Q45 42 45 81Q45 120 73 148Q101 176 140 176Q179 176 207 148Q235 120 235 81Q235 42 207 14Z"  horiz-adv-x="280" vert-adv-y="1000"  />

      
      <glyph glyph-name="uni3b" unicode="&#x3b;" d="M217 354Q217 354 203 340Q189 326 150 326Q111 326 83 354Q55 382 55 421Q55 460 83 488Q111 516 150 516Q189 516 217 488Q245 460 245 421Q245 382 217 354M245 155L165-140L45-140L85 155L245 155Z"  horiz-adv-x="290" vert-adv-y="1000"  />

      
      <glyph glyph-name="uni3c" unicode="&#x3c;" d="M490 610L490 456L210 350L490 244L490 90L40 285L40 415L490 610Z"  horiz-adv-x="530" vert-adv-y="1000"  />

      
      <glyph glyph-name="uni3d" unicode="&#x3d;" d="M40 385L40 525L480 525L480 385L40 385M40 175L40 315L480 315L480 175L40 175Z"  horiz-adv-x="520" vert-adv-y="1000"  />

      
      <glyph glyph-name="uni3e" unicode="&#x3e;" d="M40 610L490 415L490 285L40 90L40 244L320 350L40 456L40 610Z"  horiz-adv-x="530" vert-adv-y="1000"  />

      
      <glyph glyph-name="uni3f" unicode="&#x3f;" d="M190 250Q190 282 206.50 311.50Q223 341 246.50 363.50Q270 386 293.50 407Q317 428 333.50 452Q350 476 350 500Q350 558 276 558Q204 558 168 474L30 553Q63 629 130.50 671.50Q198 714 282 714Q374 714 442 660Q510 606 510 514Q510 473 493.50 437Q477 401 453.50 376Q430 351 406.50 330Q383 309 366.50 289Q350 269 350 250L190 250M337 14Q337 14 323 0Q309-14 270-14Q231-14 203 14Q175 42 175 81Q175 120 203 148Q231 176 270 176Q309 176 337 148Q365 120 365 81Q365 42 337 14Z"  horiz-adv-x="560" vert-adv-y="1000"  />

      
      <glyph glyph-name="uni40" unicode="&#x40;" d="M394 612Q500 612 582 560.50Q664 509 704 432Q744 355 744 270Q744 166 698.50 108.50Q653 51 580 51Q476 51 443 129Q407 85 347 85Q284 85 244.50 131.50Q205 178 205 250Q205 322 244.50 368.50Q284 415 347 415Q398 415 433 382L433 403L555 403L555 167Q555 101 611 101Q653 101 678.50 144Q704 187 704 270Q704 399 614.50 487.50Q525 576 394 576Q257 576 163.50 482Q70 388 70 250Q70 109 167 16.50Q264-76 412-76Q502-76 571-52L571-90Q502-112 412-112Q248-112 139-9.50Q30 93 30 250Q30 401 134.50 506.50Q239 612 394 612M381 193Q404 193 418 209Q432 225 432 250Q432 276 418 291.50Q404 307 381 307Q357 307 343 291.50Q329 276 329 250Q329 225 343 209Q357 193 381 193Z"  horiz-adv-x="774" vert-adv-y="1000"  />

      
      <glyph glyph-name="uni41" unicode="&#x41;" d="M505 0L470 110L210 110L175 0L0 0L238 700L442 700L680 0L505 0M258 260L422 260L340 517L258 260Z"  horiz-adv-x="680" vert-adv-y="1000"  />

      
      <glyph glyph-name="uni42" unicode="&#x42;" d="M494 363Q580 308 580 205Q580 114 515 57Q450 0 354 0L60 0L60 700L334 700Q428 700 491.50 644.50Q555 589 555 500Q555 416 494 363M334 550L220 550L220 426L334 426Q361 426 378 443.50Q395 461 395 488Q395 515 378 532.50Q361 550 334 550M354 150Q384 150 402 168.50Q420 187 420 217Q420 247 402 265.50Q384 284 354 284L220 284L220 150L354 150Z"  horiz-adv-x="600" vert-adv-y="1000"  />

      
      <glyph glyph-name="uni43" unicode="&#x43;" d="M394-14Q237-14 133.50 90.50Q30 195 30 350Q30 505 133.50 609.50Q237 714 394 714Q488 714 568 670.50Q648 627 694 552L556 472Q533 513 490 535.50Q447 558 394 558Q301 558 245.50 501Q190 444 190 350Q190 256 245.50 199Q301 142 394 142Q447 142 490.50 165Q534 188 556 228L694 148Q649 73 569 29.50Q489-14 394-14Z"  horiz-adv-x="719" vert-adv-y="1000"  />

      
      <glyph glyph-name="uni44" unicode="&#x44;" d="M340 700Q485 700 582.50 599.50Q680 499 680 350Q680 201 582.50 100.50Q485 0 340 0L60 0L60 700L340 700M340 154Q423 154 474.50 207.50Q526 261 526 350Q526 439 474.50 492.50Q423 546 340 546L220 546L220 154L340 154Z"  horiz-adv-x="710" vert-adv-y="1000"  />

      
      <glyph glyph-name="uni45" unicode="&#x45;" d="M220 154L500 154L500 0L60 0L60 700L495 700L495 546L220 546L220 430L470 430L470 278L220 278L220 154Z"  horiz-adv-x="530" vert-adv-y="1000"  />

      
      <glyph glyph-name="uni46" unicode="&#x46;" d="M485 546L220 546L220 411L480 411L480 257L220 257L220 0L60 0L60 700L485 700L485 546Z"  horiz-adv-x="520" vert-adv-y="1000"  />

      
      <glyph glyph-name="uni47" unicode="&#x47;" d="M753 390L753 330Q753 173 655.50 79.50Q558-14 408-14Q245-14 137.50 91Q30 196 30 349Q30 502 136.50 608Q243 714 397 714Q495 714 576.50 670Q658 626 703 554L567 476Q544 512 498.50 535Q453 558 396 558Q307 558 248.50 499Q190 440 190 348Q190 257 250 199.50Q310 142 410 142Q549 142 589 250L402 250L402 390L753 390Z"  horiz-adv-x="783" vert-adv-y="1000"  />

      
      <glyph glyph-name="uni48" unicode="&#x48;" d="M440 700L600 700L600 0L440 0L440 278L220 278L220 0L60 0L60 700L220 700L220 432L440 432L440 700Z"  horiz-adv-x="660" vert-adv-y="1000"  />

      
      <glyph glyph-name="uni49" unicode="&#x49;" d="M60 700L220 700L220 0L60 0L60 700Z"  horiz-adv-x="280" vert-adv-y="1000"  />

      
      <glyph glyph-name="uni4a" unicode="&#x4a;" d="M267-14Q100-14 30 122L169 202Q187 170 208.50 156Q230 142 268 142Q359 142 359 225L359 700L519 700L519 225Q519 113 448.50 49.50Q378-14 267-14Z"  horiz-adv-x="574" vert-adv-y="1000"  />

      
      <glyph glyph-name="uni4b" unicode="&#x4b;" d="M626 0L444 0L220 324L220 0L60 0L60 700L220 700L220 396L434 700L616 700L380 359L626 0Z"  horiz-adv-x="626" vert-adv-y="1000"  />

      
      <glyph glyph-name="uni4c" unicode="&#x4c;" d="M220 154L470 154L470 0L60 0L60 700L220 700L220 154Z"  horiz-adv-x="480" vert-adv-y="1000"  />

      
      <glyph glyph-name="uni4d" unicode="&#x4d;" d="M760 700L760 0L600 0L600 407L419 110L401 110L220 407L220 0L60 0L60 700L220 700L410 389L600 700L760 700Z"  horiz-adv-x="820" vert-adv-y="1000"  />

      
      <glyph glyph-name="uni4e" unicode="&#x4e;" d="M450 700L610 700L610 0L490 0L220 380L220 0L60 0L60 700L180 700L450 320L450 700Z"  horiz-adv-x="670" vert-adv-y="1000"  />

      
      <glyph glyph-name="uni4f" unicode="&#x4f;" d="M652 91Q652 91 599 38.50Q546-14 394-14Q242-14 136 91Q30 196 30 350Q30 504 136 609Q242 714 394 714Q546 714 652 609Q758 504 758 350Q758 196 652 91M248.50 200Q248.50 200 277.75 171Q307 142 394 142Q481 142 539.50 200Q598 258 598 350Q598 442 539.50 500Q481 558 394 558Q307 558 248.50 500Q190 442 190 350Q190 258 248.50 200Z"  horiz-adv-x="788" vert-adv-y="1000"  />

      
      <glyph glyph-name="uni50" unicode="&#x50;" d="M325 700Q428 700 499 630Q570 560 570 460Q570 360 499 290Q428 220 325 220L220 220L220 0L60 0L60 700L325 700M325 370Q362 370 386 396Q410 422 410 460Q410 498 386 524Q362 550 325 550L220 550L220 370L325 370Z"  horiz-adv-x="590" vert-adv-y="1000"  />

      
      <glyph glyph-name="uni51" unicode="&#x51;" d="M758 350Q758 220 678 121L748 47L633-55L558 24Q480-14 394-14Q242-14 136 91Q30 196 30 350Q30 504 136 609Q242 714 394 714Q546 714 652 609Q758 504 758 350M394 142Q416 142 443 147L342 254L457 356L569 237Q598 289 598 350Q598 442 539.50 500Q481 558 394 558Q307 558 248.50 500Q190 442 190 350Q190 258 248.50 200Q307 142 394 142Z"  horiz-adv-x="793" vert-adv-y="1000"  />

      
      <glyph glyph-name="uni52" unicode="&#x52;" d="M428 0L296 230L220 230L220 0L60 0L60 700L340 700Q440 700 510 630Q580 560 580 460Q580 396 544.50 341.50Q509 287 451 257L600 0L428 0M220 550L220 370L340 370Q373 370 396.50 396Q420 422 420 460Q420 498 396.50 524Q373 550 340 550L220 550Z"  horiz-adv-x="615" vert-adv-y="1000"  />

      
      <glyph glyph-name="uni53" unicode="&#x53;" d="M305-14Q198-14 126.50 32.50Q55 79 25 159L163 239Q205 142 310 142Q405 142 405 199Q405 230 374.50 247.50Q344 265 260 288Q216 300 183 315Q150 330 118.50 354.50Q87 379 70.50 416Q54 453 54 501Q54 598 123.50 656Q193 714 289 714Q375 714 441 673.50Q507 633 545 556L410 477Q391 517 363 537.50Q335 558 289 558Q253 558 233.50 542.50Q214 527 214 505Q214 479 238.50 460Q263 441 340 418Q382 405 405 397Q428 389 463.50 370.50Q499 352 517.50 331.50Q536 311 550.50 277.50Q565 244 565 201Q565 101 493 43.50Q421-14 305-14Z"  horiz-adv-x="585" vert-adv-y="1000"  />

      
      <glyph glyph-name="uni54" unicode="&#x54;" d="M530 700L530 546L350 546L350 0L190 0L190 546L10 546L10 700L530 700Z"  horiz-adv-x="540" vert-adv-y="1000"  />

      
      <glyph glyph-name="uni55" unicode="&#x55;" d="M519 51Q519 51 481 18.50Q443-14 325-14Q207-14 131 51Q55 116 55 226L55 700L215 700L215 240Q215 142 325 142Q435 142 435 240L435 700L595 700L595 226Q595 116 519 51Z"  horiz-adv-x="650" vert-adv-y="1000"  />

      
      <glyph glyph-name="uni56" unicode="&#x56;" d="M228 0L0 700L175 700L330 185L485 700L660 700L432 0L228 0Z"  horiz-adv-x="660" vert-adv-y="1000"  />

      
      <glyph glyph-name="uni57" unicode="&#x57;" d="M203 0L10 700L178 700L299 210L434 700L564 700L699 210L820 700L988 700L795 0L613 0L499 413L385 0L203 0Z"  horiz-adv-x="998" vert-adv-y="1000"  />

      
      <glyph glyph-name="uni58" unicode="&#x58;" d="M610 0L428 0L310 202L192 0L10 0L219 359L20 700L202 700L310 515L418 700L600 700L401 359L610 0Z"  horiz-adv-x="620" vert-adv-y="1000"  />

      
      <glyph glyph-name="uni59" unicode="&#x59;" d="M630 700L395 269L395 0L235 0L235 269L0 700L182 700L315 430L448 700L630 700Z"  horiz-adv-x="630" vert-adv-y="1000"  />

      
      <glyph glyph-name="uni5a" unicode="&#x5a;" d="M242 154L515 154L515 0L35 0L35 124L303 546L40 546L40 700L510 700L510 576L242 154Z"  horiz-adv-x="540" vert-adv-y="1000"  />

      
      <glyph glyph-name="uni5b" unicode="&#x5b;" d="M300 656L200 656L200 44L300 44L300-100L50-100L50 800L300 800L300 656Z"  horiz-adv-x="320" vert-adv-y="1000"  />

      
      <glyph glyph-name="uni5c" unicode="&#x5c;" d="M430-100L30 800L90 800L490-100L430-100Z"  horiz-adv-x="520" vert-adv-y="1000"  />

      
      <glyph glyph-name="uni5d" unicode="&#x5d;" d="M270 800L270-100L20-100L20 44L120 44L120 656L20 656L20 800L270 800Z"  horiz-adv-x="320" vert-adv-y="1000"  />

      
      <glyph glyph-name="uni5e" unicode="&#x5e;" d="M344 700L540 360L380 360L290 527L200 360L40 360L236 700L344 700Z"  horiz-adv-x="580" vert-adv-y="1000"  />

      
      <glyph glyph-name="uni5f" unicode="&#x5f;" d="M30-181L30-37L490-37L490-181L30-181Z"  horiz-adv-x="520" vert-adv-y="1000"  />

      
      <glyph glyph-name="uni60" unicode="&#x60;" d="M280 560L200 700L20 700L136 560L280 560Z"  horiz-adv-x="300" vert-adv-y="1000"  />

      
      <glyph glyph-name="uni61" unicode="&#x61;" d="M418 500L568 500L568 0L418 0L418 47Q365-14 269-14Q170-14 100 62.50Q30 139 30 250Q30 361 100 437.50Q170 514 269 514Q365 514 418 453L418 500M213 161Q213 161 229.50 144.50Q246 128 299 128Q352 128 385 161Q418 194 418 250Q418 306 385 339Q352 372 299 372Q246 372 213 339Q180 306 180 250Q180 194 213 161Z"  horiz-adv-x="623" vert-adv-y="1000"  />

      
      <glyph glyph-name="uni62" unicode="&#x62;" d="M354 514Q453 514 523 437.50Q593 361 593 250Q593 139 523 62.50Q453-14 354-14Q258-14 205 47L205 0L55 0L55 700L205 700L205 453Q258 514 354 514M238.50 161Q238.50 161 255.25 144.50Q272 128 324 128Q376 128 409.50 161Q443 194 443 250Q443 306 409.50 339Q376 372 324 372Q272 372 238.50 339Q205 306 205 250Q205 194 238.50 161Z"  horiz-adv-x="623" vert-adv-y="1000"  />

      
      <glyph glyph-name="uni63" unicode="&#x63;" d="M295-14Q181-14 105.50 62Q30 138 30 250Q30 362 105.50 438Q181 514 295 514Q367 514 427.50 479Q488 444 521 386L390 310Q363 366 293 366Q244 366 212 333.50Q180 301 180 250Q180 199 212 166.50Q244 134 293 134Q364 134 390 190L521 115Q488 56 428 21Q368-14 295-14Z"  horiz-adv-x="531" vert-adv-y="1000"  />

      
      <glyph glyph-name="uni64" unicode="&#x64;" d="M418 700L568 700L568 0L418 0L418 47Q365-14 269-14Q170-14 100 62.50Q30 139 30 250Q30 361 100 437.50Q170 514 269 514Q365 514 418 453L418 700M213 161Q213 161 229.50 144.50Q246 128 299 128Q352 128 385 161Q418 194 418 250Q418 306 385 339Q352 372 299 372Q246 372 213 339Q180 306 180 250Q180 194 213 161Z"  horiz-adv-x="623" vert-adv-y="1000"  />

      
      <glyph glyph-name="uni65" unicode="&#x65;" d="M189 190Q215 120 309 120Q370 120 405 158L525 89Q451-14 307-14Q181-14 105.50 61Q30 136 30 250Q30 363 104.50 438.50Q179 514 296 514Q405 514 477.50 438.50Q550 363 550 250Q550 218 544 190L189 190M186 302L401 302Q379 381 295 381Q208 381 186 302Z"  horiz-adv-x="580" vert-adv-y="1000"  />

      
      <glyph glyph-name="uni66" unicode="&#x66;" d="M330 570Q237 578 237 500L330 500L330 356L237 356L237 0L87 0L87 356L20 356L20 500L87 500Q87 608 148 664.50Q209 721 330 714L330 570Z"  horiz-adv-x="330" vert-adv-y="1000"  />

      
      <glyph glyph-name="uni67" unicode="&#x67;" d="M422 500L568 500L568 25Q568-93 491-153.50Q414-214 304-214Q135-214 67-93L195-19Q229-82 309-82Q362-82 392-54.50Q422-27 422 25L422 71Q370 6 276 6Q171 6 100.50 80.50Q30 155 30 260Q30 365 100.50 439.50Q171 514 276 514Q370 514 422 449L422 500M214 176Q214 176 231 160Q248 144 301 144Q354 144 388 176Q422 208 422 260Q422 312 388 344Q354 376 301 376Q248 376 214 344Q180 312 180 260Q180 208 214 176Z"  horiz-adv-x="623" vert-adv-y="1000"  />

      
      <glyph glyph-name="uni68" unicode="&#x68;" d="M348 514Q428 514 481.50 459Q535 404 535 307L535 0L385 0L385 285Q385 329 360.50 352.50Q336 376 298 376Q255 376 230 350Q205 324 205 273L205 0L55 0L55 700L205 700L205 453Q250 514 348 514Z"  horiz-adv-x="583" vert-adv-y="1000"  />

      
      <glyph glyph-name="uni69" unicode="&#x69;" d="M193.50 570.50Q193.50 570.50 180.25 557.25Q167 544 130 544Q93 544 66.50 570.50Q40 597 40 634Q40 671 66.50 697.50Q93 724 130 724Q167 724 193.50 697.50Q220 671 220 634Q220 597 193.50 570.50M55 0L55 500L205 500L205 0L55 0Z"  horiz-adv-x="260" vert-adv-y="1000"  />

      
      <glyph glyph-name="uni6a" unicode="&#x6a;" d="M208.50 570.50Q208.50 570.50 195.25 557.25Q182 544 145 544Q108 544 81.50 570.50Q55 597 55 634Q55 671 81.50 697.50Q108 724 145 724Q182 724 208.50 697.50Q235 671 235 634Q235 597 208.50 570.50M70 0L70 500L220 500L220 0Q220-117 164-169Q108-221-10-214L-10-70Q32-72 51-55.50Q70-39 70 0Z"  horiz-adv-x="275" vert-adv-y="1000"  />

      
      <glyph glyph-name="uni6b" unicode="&#x6b;" d="M535 0L365 0L205 221L205 0L55 0L55 700L205 700L205 281L355 500L530 500L348 250L535 0Z"  horiz-adv-x="535" vert-adv-y="1000"  />

      
      <glyph glyph-name="uni6c" unicode="&#x6c;" d="M55 0L55 730L205 730L205 0L55 0Z"  horiz-adv-x="260" vert-adv-y="1000"  />

      
      <glyph glyph-name="uni6d" unicode="&#x6d;" d="M615 514Q701 514 753 457.50Q805 401 805 307L805 0L655 0L655 294Q655 332 636.50 354Q618 376 583 376Q546 376 525.50 351Q505 326 505 282L505 0L355 0L355 294Q355 332 336.50 354Q318 376 283 376Q246 376 225.50 351Q205 326 205 282L205 0L55 0L55 500L205 500L205 454Q246 514 339 514Q426 514 470 448Q516 514 615 514Z"  horiz-adv-x="853" vert-adv-y="1000"  />

      
      <glyph glyph-name="uni6e" unicode="&#x6e;" d="M348 514Q428 514 481.50 459Q535 404 535 307L535 0L385 0L385 285Q385 329 360.50 352.50Q336 376 298 376Q255 376 230 350Q205 324 205 273L205 0L55 0L55 500L205 500L205 453Q250 514 348 514Z"  horiz-adv-x="583" vert-adv-y="1000"  />

      
      <glyph glyph-name="uni6f" unicode="&#x6f;" d="M483 62.50Q483 62.50 444.50 24.25Q406-14 295-14Q184-14 107 62.50Q30 139 30 250Q30 361 107 437.50Q184 514 295 514Q406 514 483 437.50Q560 361 560 250Q560 139 483 62.50M213 165Q213 165 229.50 148.50Q246 132 295 132Q344 132 377 165Q410 198 410 250Q410 302 377 335Q344 368 295 368Q246 368 213 335Q180 302 180 250Q180 198 213 165Z"  horiz-adv-x="590" vert-adv-y="1000"  />

      
      <glyph glyph-name="uni70" unicode="&#x70;" d="M354 514Q453 514 523 437.50Q593 361 593 250Q593 139 523 62.50Q453-14 354-14Q258-14 205 47L205-200L55-200L55 500L205 500L205 453Q258 514 354 514M238.50 161Q238.50 161 255.25 144.50Q272 128 324 128Q376 128 409.50 161Q443 194 443 250Q443 306 409.50 339Q376 372 324 372Q272 372 238.50 339Q205 306 205 250Q205 194 238.50 161Z"  horiz-adv-x="623" vert-adv-y="1000"  />

      
      <glyph glyph-name="uni71" unicode="&#x71;" d="M418 500L568 500L568-200L418-200L418 47Q365-14 269-14Q170-14 100 62.50Q30 139 30 250Q30 361 100 437.50Q170 514 269 514Q365 514 418 453L418 500M213 161Q213 161 229.50 144.50Q246 128 299 128Q352 128 385 161Q418 194 418 250Q418 306 385 339Q352 372 299 372Q246 372 213 339Q180 306 180 250Q180 194 213 161Z"  horiz-adv-x="623" vert-adv-y="1000"  />

      
      <glyph glyph-name="uni72" unicode="&#x72;" d="M205 411Q219 459 261.50 484.50Q304 510 355 510L355 340Q300 349 252.50 321.50Q205 294 205 226L205 0L55 0L55 500L205 500L205 411Z"  horiz-adv-x="370" vert-adv-y="1000"  />

      
      <glyph glyph-name="uni73" unicode="&#x73;" d="M197 354Q197 339 222.50 329.50Q248 320 284 310.50Q320 301 356 286Q392 271 417.50 236.50Q443 202 443 150Q443 69 383 27.50Q323-14 235-14Q77-14 20 105L150 179Q170 120 235 120Q289 120 289 151Q289 166 263.50 176Q238 186 202 195.50Q166 205 130 220.50Q94 236 68.50 269Q43 302 43 350Q43 428 99.50 471Q156 514 239 514Q301 514 352 486.50Q403 459 434 407L306 338Q282 382 239 382Q197 382 197 354Z"  horiz-adv-x="468" vert-adv-y="1000"  />

      
      <glyph glyph-name="uni74" unicode="&#x74;" d="M348 356L245 356L245 179Q245 149 269 141Q293 133 348 136L348 0Q205-15 150 27.50Q95 70 95 179L95 356L15 356L15 500L95 500L95 595L245 640L245 500L348 500L348 356Z"  horiz-adv-x="388" vert-adv-y="1000"  />

      
      <glyph glyph-name="uni75" unicode="&#x75;" d="M378 500L528 500L528 0L378 0L378 47Q333-14 235-14Q155-14 101.50 41Q48 96 48 193L48 500L198 500L198 215Q198 171 222.50 147.50Q247 124 285 124Q328 124 353 150Q378 176 378 227L378 500Z"  horiz-adv-x="583" vert-adv-y="1000"  />

      
      <glyph glyph-name="uni76" unicode="&#x76;" d="M374 500L540 500L355 0L185 0L0 500L166 500L270 183L374 500Z"  horiz-adv-x="540" vert-adv-y="1000"  />

      
      <glyph glyph-name="uni77" unicode="&#x77;" d="M605 500L765 500L605 0L465 0L385 267L305 0L165 0L5 500L165 500L237 232L315 500L455 500L533 232L605 500Z"  horiz-adv-x="770" vert-adv-y="1000"  />

      
      <glyph glyph-name="uni78" unicode="&#x78;" d="M530 0L358 0L265 132L172 0L0 0L179 254L6 500L178 500L265 376L352 500L524 500L351 254L530 0Z"  horiz-adv-x="530" vert-adv-y="1000"  />

      
      <glyph glyph-name="uni79" unicode="&#x79;" d="M370 500L530 500L359 15Q317-103 248.50-154Q180-205 74-200L74-60Q126-60 154-41.50Q182-23 199 23L0 500L165 500L276 194L370 500Z"  horiz-adv-x="530" vert-adv-y="1000"  />

      
      <glyph glyph-name="uni7a" unicode="&#x7a;" d="M241 140L440 140L440 0L40 0L40 100L229 360L50 360L50 500L430 500L430 400L241 140Z"  horiz-adv-x="475" vert-adv-y="1000"  />

      
      <glyph glyph-name="uni7b" unicode="&#x7b;" d="M340-107Q120-121 120 87L120 229Q120 263 102.50 273Q85 283 50 279L50 424Q85 420 102.50 430Q120 440 120 474L120 616Q120 824 340 810L340 666Q305 670 287.50 660Q270 650 270 616L270 474Q270 389 217 352Q270 314 270 229L270 87Q270 53 287.50 43Q305 33 340 37L340-107Z"  horiz-adv-x="360" vert-adv-y="1000"  />

      
      <glyph glyph-name="uni7c" unicode="&#x7c;" d="M60-200L60 720L210 720L210-200L60-200Z"  horiz-adv-x="270" vert-adv-y="1000"  />

      
      <glyph glyph-name="uni7d" unicode="&#x7d;" d="M20-107L20 37Q55 33 72.50 43Q90 53 90 87L90 229Q90 314 143 352Q90 389 90 474L90 616Q90 650 72.50 660Q55 670 20 666L20 810Q240 824 240 616L240 474Q240 440 257.50 430Q275 420 310 424L310 279Q275 283 257.50 273Q240 263 240 229L240 87Q240-121 20-107Z"  horiz-adv-x="360" vert-adv-y="1000"  />

      
      <glyph glyph-name="uni7e" unicode="&#x7e;" d="M440 452L560 394Q542 325 503 286.50Q464 248 415.50 245.50Q367 243 311 264Q236 298 207.50 296.50Q179 295 160 244L40 302Q58 371 97 409.50Q136 448 184.50 450.50Q233 453 289 432Q364 398 392.50 400Q421 402 440 452Z"  horiz-adv-x="600" vert-adv-y="1000"  />

      
      <glyph glyph-name="unia1" unicode="&#xa1;" d="M73 486Q73 486 87 500Q101 514 140 514Q179 514 207 486Q235 458 235 419Q235 380 207 352Q179 324 140 324Q101 324 73 352Q45 380 45 419Q45 458 73 486M80 250L200 250L230 0L230-200L50-200L50 0L80 250Z"  horiz-adv-x="280" vert-adv-y="1000"  />

      
      <glyph glyph-name="unia2" unicode="&#xa2;" d="M293 234Q364 234 390 290L521 215Q488 156 428 121Q368 86 295 86Q264 86 236 92L206 0L146 0L181 110Q112 141 71 205Q30 269 30 350Q30 462 105.50 538Q181 614 295 614Q322 614 343 610L372 700L432 700L398 594Q480 559 521 486L390 410Q378 434 352 451L282 234L293 234M180 350Q180 285 228 253L296 466L293 466Q244 466 212 433.50Q180 401 180 350Z"  horiz-adv-x="531" vert-adv-y="1000"  />

      
      <glyph glyph-name="unia3" unicode="&#xa3;" d="M256 154L570 154L570 0L30 0L30 154L96 154L96 269L40 269L40 409L96 409L96 493Q96 601 163 657.50Q230 714 321 714Q400 714 459 675Q518 636 547 565L408 485Q396 523 377.50 540.50Q359 558 326 558Q295 558 275.50 539Q256 520 256 486L256 409L450 409L450 269L256 269L256 154Z"  horiz-adv-x="580" vert-adv-y="1000"  />

      
      <glyph glyph-name="unia4" unicode="&#xa4;" d="M485 350Q485 277 440 219L510 150L470 110L400 181Q343 140 270 140Q196 140 141 181L70 110L30 150L100 220Q55 276 55 350Q55 424 100 480L30 550L70 590L141 519Q196 560 270 560Q344 560 399 519L470 590L510 550L440 480Q485 424 485 350M221 300.50Q221 300.50 230 291.25Q239 282 270 282Q301 282 319 300.50Q337 319 337 350Q337 381 319 399.50Q301 418 270 418Q239 418 221 399.50Q203 381 203 350Q203 319 221 300.50Z"  horiz-adv-x="540" vert-adv-y="1000"  />

      
      <glyph glyph-name="unia5" unicode="&#xa5;" d="M630 700L448 367L540 367L540 279L400 279L395 269L395 239L540 239L540 151L395 151L395 0L235 0L235 151L70 151L70 239L235 239L235 269L230 279L70 279L70 367L182 367L0 700L182 700L315 430L448 700L630 700Z"  horiz-adv-x="610" vert-adv-y="1000"  />

      
      <glyph glyph-name="unia6" unicode="&#xa6;" d="M60 350L60 720L210 720L210 350L60 350M60-200L60 170L210 170L210-200L60-200Z"  horiz-adv-x="270" vert-adv-y="1000"  />

      
      <glyph glyph-name="unia7" unicode="&#xa7;" d="M517 292Q517 213 459 161Q489 119 489 62Q489-23 429.50-67.50Q370-112 281-112Q110-112 55 12L190 89Q216 18 281 18Q339 18 339 62Q339 73 332 82Q325 91 309 99.50Q293 108 279 114Q265 120 238.50 130Q212 140 197 146Q128 175 86.50 214.50Q45 254 45 320Q45 399 105 446Q78 486 78 544Q78 627 136 670.50Q194 714 276 714Q343 714 398 682Q453 650 482 586L358 519Q326 584 276 584Q228 584 228 544Q228 538 230 532Q232 526 236.50 520.50Q241 515 246 511Q251 507 259.50 502Q268 497 275 493.50Q282 490 294 485Q306 480 313.50 477Q321 474 335.50 468.50Q350 463 358 460Q392 447 416 434Q440 421 465.50 401.50Q491 382 504 354Q517 326 517 292M195 330Q195 290 265 264Q276 260 305.50 250Q335 240 351 233Q367 247 367 272Q367 297 347.50 311.50Q328 326 287 341Q282 343 254 353Q226 363 211 369Q195 355 195 330Z"  horiz-adv-x="552" vert-adv-y="1000"  />

      
      <glyph glyph-name="unia8" unicode="&#xa8;" d="M148 562Q148 562 137 551Q126 540 95 540Q64 540 42 562Q20 584 20 615Q20 646 42 668Q64 690 95 690Q126 690 148 668Q170 646 170 615Q170 584 148 562M338 562Q338 562 327 551Q316 540 285 540Q254 540 232 562Q210 584 210 615Q210 646 232 668Q254 690 285 690Q316 690 338 668Q360 646 360 615Q360 584 338 562Z"  horiz-adv-x="380" vert-adv-y="1000"  />

      
      <glyph glyph-name="unia9" unicode="&#xa9;" d="M648 94Q648 94 595 41Q542-12 392-12Q242-12 136 94Q30 200 30 350Q30 500 136 606Q242 712 392 712Q542 712 648 606Q754 500 754 350Q754 200 648 94M164.50 119.50Q164.50 119.50 211.75 71.75Q259 24 392 24Q525 24 619.50 119.50Q714 215 714 350Q714 485 619.50 580.50Q525 676 392 676Q259 676 164.50 580.50Q70 485 70 350Q70 215 164.50 119.50M395 153Q313 153 254.50 211.50Q196 270 196 350Q196 430 254.50 488.50Q313 547 395 547Q447 547 492 521.50Q537 496 564 450L454 386Q433 420 392 420Q361 420 341.50 399Q322 378 322 350Q322 322 341.50 301Q361 280 392 280Q433 280 454 314L564 250Q538 205 492.50 179Q447 153 395 153Z"  horiz-adv-x="784" vert-adv-y="1000"  />

      
      <glyph glyph-name="uniab" unicode="&#xab;" d="M302 499L192 309L302 119L170 119L60 309L170 499L302 499M502 499L392 309L502 119L370 119L260 309L370 499L502 499Z"  horiz-adv-x="562" vert-adv-y="1000"  />

      
      <glyph glyph-name="uniac" unicode="&#xac;" d="M40 420L520 420L520 160L370 160L370 280L40 280L40 420Z"  horiz-adv-x="560" vert-adv-y="1000"  />

      
      <glyph glyph-name="uniae" unicode="&#xae;" d="M136 606Q136 606 189 659Q242 712 392 712Q542 712 648 606Q754 500 754 350Q754 200 648 94Q542-12 392-12Q242-12 136 94Q30 200 30 350Q30 500 136 606M164.50 119.50Q164.50 119.50 211.75 71.75Q259 24 392 24Q525 24 619.50 119.50Q714 215 714 350Q714 485 619.50 580.50Q525 676 392 676Q259 676 164.50 580.50Q70 485 70 350Q70 215 164.50 119.50M551 411Q551 341 500 300L576 165L445 165L397 267L369 267L369 165L247 165L247 535L407 535Q465 535 508 501Q551 467 551 411M369 425L369 367L394 367Q410 367 419.50 375Q429 383 429 396Q429 425 394 425L369 425Z"  horiz-adv-x="784" vert-adv-y="1000"  />

      
      <glyph glyph-name="uniaf" unicode="&#xaf;" d="M20 559L20 679L320 679L320 559L20 559Z"  horiz-adv-x="340" vert-adv-y="1000"  />

      
      <glyph glyph-name="unib0" unicode="&#xb0;" d="M203 470Q129 470 79.50 519.50Q30 569 30 640Q30 711 79.50 760.50Q129 810 203 810Q277 810 326.50 760.50Q376 711 376 640Q376 569 327 519.50Q278 470 203 470M167.50 604Q167.50 604 174.25 597Q181 590 203 590Q225 590 238.50 603.50Q252 617 252 640Q252 662 238.50 676Q225 690 203 690Q181 690 167.50 676Q154 662 154 640Q154 618 167.50 604Z"  horiz-adv-x="406" vert-adv-y="1000"  />

      
      <glyph glyph-name="unib1" unicode="&#xb1;" d="M350 520L510 520L510 380L350 380L350 240L210 240L210 380L50 380L50 520L210 520L210 660L350 660L350 520M50 40L50 180L510 180L510 40L50 40Z"  horiz-adv-x="560" vert-adv-y="1000"  />

      
      <glyph glyph-name="unib4" unicode="&#xb4;" d="M20 560L164 560L280 700L100 700L20 560Z"  horiz-adv-x="300" vert-adv-y="1000"  />

      
      <glyph glyph-name="unib5" unicode="&#xb5;" d="M565 140L600 140L600 0L535 0Q462 0 422 43Q378-14 282-14Q240-14 205 2L205-200L55-200L55 500L205 500L205 215Q205 171 229.50 147.50Q254 124 292 124Q335 124 360 150Q385 176 385 227L385 500L535 500L535 170Q535 140 565 140Z"  horiz-adv-x="620" vert-adv-y="1000"  />

      
      <glyph glyph-name="unib6" unicode="&#xb6;" d="M650 700L650 570L588 570L588-200L448-200L448 570L380 570L380-200L240-200L240 260Q149 260 84.50 324.50Q20 389 20 480Q20 572 84 636Q148 700 240 700L650 700Z"  horiz-adv-x="698" vert-adv-y="1000"  />

      
      <glyph glyph-name="unib7" unicode="&#xb7;" d="M207 279Q207 279 193 265Q179 251 140 251Q101 251 73 279Q45 307 45 346Q45 385 73 413Q101 441 140 441Q179 441 207 413Q235 385 235 346Q235 307 207 279Z"  horiz-adv-x="280" vert-adv-y="1000"  />

      
      <glyph glyph-name="unib8" unicode="&#xb8;" d="M182-46Q207-52 226-71Q245-90 245-123Q245-229 20-216L20-112Q115-119 115-98Q115-83 62-78L62 0L182 0L182-46Z"  horiz-adv-x="265" vert-adv-y="1000"  />

      
      <glyph glyph-name="unibb" unicode="&#xbb;" d="M192 499L302 309L192 119L60 119L170 309L60 499L192 499M392 499L502 309L392 119L260 119L370 309L260 499L392 499Z"  horiz-adv-x="562" vert-adv-y="1000"  />

      
      <glyph glyph-name="unibc" unicode="&#xbc;" d="M229 300L107 300L107 579L28 557L0 656L122 700L229 700L229 300M514 700L614 700L214 0L114 0L514 700M797 171L797 61L760 61L760 0L644 0L644 61L464 61L464 171L586 400L716 400L599 171L644 171L644 232L760 232L760 171L797 171Z"  horiz-adv-x="812" vert-adv-y="1000"  />

      
      <glyph glyph-name="unibd" unicode="&#xbd;" d="M229 300L107 300L107 579L28 557L0 656L122 700L229 700L229 300M514 700L614 700L214 0L114 0L514 700M658 110L781 110L781 0L475 0L475 77L620 224Q652 256 652 277Q652 304 621 304Q587 304 568 257L469 313Q512 414 623 414Q688 414 731.50 378.50Q775 343 775 287Q775 227 705 157L658 110Z"  horiz-adv-x="815" vert-adv-y="1000"  />

      
      <glyph glyph-name="unibe" unicode="&#xbe;" d="M324 422Q324 356 282.50 321Q241 286 166 286Q46 286 5 376L108 436Q123 391 166 391Q201 391 201 422Q201 452 161 452L137 452L95 514L157 590L24 590L24 700L305 700L305 615L238 536Q324 508 324 422M586 700L686 700L286 0L186 0L586 700M869 171L869 61L832 61L832 0L716 0L716 61L536 61L536 171L658 400L788 400L671 171L716 171L716 232L832 232L832 171L869 171Z"  horiz-adv-x="884" vert-adv-y="1000"  />

      
      <glyph glyph-name="unibf" unicode="&#xbf;" d="M223 486Q223 486 237 500Q251 514 290 514Q329 514 357 486Q385 458 385 419Q385 380 357 352Q329 324 290 324Q251 324 223 352Q195 380 195 419Q195 458 223 486M370 250Q370 218 353.50 188.50Q337 159 313.50 136.50Q290 114 266.50 93Q243 72 226.50 48Q210 24 210 0Q210-58 284-58Q356-58 392 26L530-53Q497-129 429.50-171.50Q362-214 278-214Q186-214 118-160Q50-106 50-14Q50 27 66.50 63Q83 99 106.50 124Q130 149 153.50 170Q177 191 193.50 211Q210 231 210 250L370 250Z"  horiz-adv-x="560" vert-adv-y="1000"  />

      
      <glyph glyph-name="unic0" unicode="&#xc0;" d="M430 760L286 760L170 900L350 900L430 760M505 0L470 110L210 110L175 0L0 0L238 700L442 700L680 0L505 0M258 260L422 260L340 517L258 260Z"  horiz-adv-x="680" vert-adv-y="1000"  />

      
      <glyph glyph-name="unic1" unicode="&#xc1;" d="M510 900L394 760L250 760L330 900L510 900M505 0L470 110L210 110L175 0L0 0L238 700L442 700L680 0L505 0M258 260L422 260L340 517L258 260Z"  horiz-adv-x="680" vert-adv-y="1000"  />

      
      <glyph glyph-name="unic2" unicode="&#xc2;" d="M335 805L300 750L155 750L261 900L409 900L515 750L370 750L335 805M505 0L470 110L210 110L175 0L0 0L238 700L442 700L680 0L505 0M258 260L422 260L340 517L258 260Z"  horiz-adv-x="680" vert-adv-y="1000"  />

      
      <glyph glyph-name="unic3" unicode="&#xc3;" d="M323 777Q298 793 289 788Q280 783 280 753L160 753Q160 814 177.50 853Q195 892 224 904.50Q253 917 287 912.50Q321 908 356 886Q382 870 390.50 875Q399 880 399 910L519 910Q519 849 501.50 810Q484 771 455 758.50Q426 746 392 750.50Q358 755 323 777M505 0L470 110L210 110L175 0L0 0L238 700L442 700L680 0L505 0M258 260L422 260L340 517L258 260Z"  horiz-adv-x="680" vert-adv-y="1000"  />

      
      <glyph glyph-name="unic4" unicode="&#xc4;" d="M298 762Q298 762 287 751Q276 740 245 740Q214 740 192 762Q170 784 170 815Q170 846 192 868Q214 890 245 890Q276 890 298 868Q320 846 320 815Q320 784 298 762M488 762Q488 762 477 751Q466 740 435 740Q404 740 382 762Q360 784 360 815Q360 846 382 868Q404 890 435 890Q466 890 488 868Q510 846 510 815Q510 784 488 762M505 0L470 110L210 110L175 0L0 0L238 700L442 700L680 0L505 0M258 260L422 260L340 517L258 260Z"  horiz-adv-x="680" vert-adv-y="1000"  />

      
      <glyph glyph-name="unic5" unicode="&#xc5;" d="M505 0L470 110L210 110L175 0L0 0L235 691Q207 724 207 770Q207 824 244.50 859.50Q282 895 340 895Q399 895 436 859.50Q473 824 473 770Q473 724 445 690L680 0L505 0M366.50 794.50Q366.50 794.50 361.75 799.25Q357 804 340 804Q323 804 314 794.50Q305 785 305 770Q305 755 314 745.50Q323 736 340 736Q357 736 366.50 745.50Q376 755 376 770Q376 785 366.50 794.50M258 260L422 260L340 517L258 260Z"  horiz-adv-x="680" vert-adv-y="1000"  />

      
      <glyph glyph-name="unic6" unicode="&#xc6;" d="M605 154L850 154L850 0L450 0L450 110L244 110L180 0L0 0L409 700L845 700L845 546L605 546L605 430L820 430L820 278L605 278L605 154M331 260L450 260L450 464L331 260Z"  horiz-adv-x="880" vert-adv-y="1000"  />

      
      <glyph glyph-name="unic7" unicode="&#xc7;" d="M394 142Q447 142 490.50 165Q534 188 556 228L694 148Q657 87 596 46Q535 5 461-8L461-46Q486-52 505-71Q524-90 524-123Q524-229 299-216L299-112Q394-119 394-98Q394-83 341-78L341-11Q204 7 117 108Q30 209 30 350Q30 505 133.50 609.50Q237 714 394 714Q488 714 568 670.50Q648 627 694 552L556 472Q533 513 490 535.50Q447 558 394 558Q301 558 245.50 501Q190 444 190 350Q190 256 245.50 199Q301 142 394 142Z"  horiz-adv-x="719" vert-adv-y="1000"  />

      
      <glyph glyph-name="unic8" unicode="&#xc8;" d="M368 760L224 760L108 900L288 900L368 760M220 154L500 154L500 0L60 0L60 700L495 700L495 546L220 546L220 430L470 430L470 278L220 278L220 154Z"  horiz-adv-x="530" vert-adv-y="1000"  />

      
      <glyph glyph-name="unic9" unicode="&#xc9;" d="M448 900L332 760L188 760L268 900L448 900M220 154L500 154L500 0L60 0L60 700L495 700L495 546L220 546L220 430L470 430L470 278L220 278L220 154Z"  horiz-adv-x="530" vert-adv-y="1000"  />

      
      <glyph glyph-name="unica" unicode="&#xca;" d="M273 805L238 750L93 750L199 900L347 900L453 750L308 750L273 805M220 154L500 154L500 0L60 0L60 700L495 700L495 546L220 546L220 430L470 430L470 278L220 278L220 154Z"  horiz-adv-x="530" vert-adv-y="1000"  />

      
      <glyph glyph-name="unicb" unicode="&#xcb;" d="M236 762Q236 762 225 751Q214 740 183 740Q152 740 130 762Q108 784 108 815Q108 846 130 868Q152 890 183 890Q214 890 236 868Q258 846 258 815Q258 784 236 762M426 762Q426 762 415 751Q404 740 373 740Q342 740 320 762Q298 784 298 815Q298 846 320 868Q342 890 373 890Q404 890 426 868Q448 846 448 815Q448 784 426 762M220 154L500 154L500 0L60 0L60 700L495 700L495 546L220 546L220 430L470 430L470 278L220 278L220 154Z"  horiz-adv-x="530" vert-adv-y="1000"  />

      
      <glyph glyph-name="unicc" unicode="&#xcc;" d="M230 760L150 900L-30 900L86 760L230 760M60 700L220 700L220 0L60 0L60 700Z"  horiz-adv-x="280" vert-adv-y="1000"  />

      
      <glyph glyph-name="unicd" unicode="&#xcd;" d="M50 760L194 760L310 900L130 900L50 760M60 700L220 700L220 0L60 0L60 700Z"  horiz-adv-x="280" vert-adv-y="1000"  />

      
      <glyph glyph-name="unice" unicode="&#xce;" d="M135 805L100 750L-45 750L61 900L209 900L315 750L170 750L135 805M60 0L60 700L220 700L220 0L60 0Z"  horiz-adv-x="280" vert-adv-y="1000"  />

      
      <glyph glyph-name="unicf" unicode="&#xcf;" d="M98 762Q98 762 87 751Q76 740 45 740Q14 740-8 762Q-30 784-30 815Q-30 846-8 868Q14 890 45 890Q76 890 98 868Q120 846 120 815Q120 784 98 762M288 762Q288 762 277 751Q266 740 235 740Q204 740 182 762Q160 784 160 815Q160 846 182 868Q204 890 235 890Q266 890 288 868Q310 846 310 815Q310 784 288 762M60 700L220 700L220 0L60 0L60 700Z"  horiz-adv-x="280" vert-adv-y="1000"  />

      
      <glyph glyph-name="unid0" unicode="&#xd0;" d="M380 700Q525 700 622.50 599.50Q720 499 720 350Q720 201 622.50 100.50Q525 0 380 0L100 0L100 268L20 268L20 412L100 412L100 700L380 700M380 154Q463 154 514.50 207.50Q566 261 566 350Q566 439 514.50 492.50Q463 546 380 546L260 546L260 412L400 412L400 268L260 268L260 154L380 154Z"  horiz-adv-x="750" vert-adv-y="1000"  />

      
      <glyph glyph-name="unid1" unicode="&#xd1;" d="M145 753Q145 814 162.50 853Q180 892 209 904.50Q238 917 272 912.50Q306 908 341 886Q366 870 375 875Q384 880 384 910L504 910Q504 849 486.50 810Q469 771 440 758.50Q411 746 377 750.50Q343 755 308 777Q282 793 273.50 788Q265 783 265 753L145 753M450 700L610 700L610 0L490 0L220 380L220 0L60 0L60 700L180 700L450 320L450 700Z"  horiz-adv-x="670" vert-adv-y="1000"  />

      
      <glyph glyph-name="unid2" unicode="&#xd2;" d="M484 770L404 910L224 910L340 770L484 770M652 91Q652 91 599 38.50Q546-14 394-14Q242-14 136 91Q30 196 30 350Q30 504 136 609Q242 714 394 714Q546 714 652 609Q758 504 758 350Q758 196 652 91M248.50 200Q248.50 200 277.75 171Q307 142 394 142Q481 142 539.50 200Q598 258 598 350Q598 442 539.50 500Q481 558 394 558Q307 558 248.50 500Q190 442 190 350Q190 258 248.50 200Z"  horiz-adv-x="788" vert-adv-y="1000"  />

      
      <glyph glyph-name="unid3" unicode="&#xd3;" d="M304 770L448 770L564 910L384 910L304 770M652 91Q652 91 599 38.50Q546-14 394-14Q242-14 136 91Q30 196 30 350Q30 504 136 609Q242 714 394 714Q546 714 652 609Q758 504 758 350Q758 196 652 91M248.50 200Q248.50 200 277.75 171Q307 142 394 142Q481 142 539.50 200Q598 258 598 350Q598 442 539.50 500Q481 558 394 558Q307 558 248.50 500Q190 442 190 350Q190 258 248.50 200Z"  horiz-adv-x="788" vert-adv-y="1000"  />

      
      <glyph glyph-name="unid4" unicode="&#xd4;" d="M389 815L354 760L209 760L315 910L463 910L569 760L424 760L389 815M136 609Q136 609 189 661.50Q242 714 394 714Q546 714 652 609Q758 504 758 350Q758 196 652 91Q546-14 394-14Q242-14 136 91Q30 196 30 350Q30 504 136 609M248.50 200Q248.50 200 277.75 171Q307 142 394 142Q481 142 539.50 200Q598 258 598 350Q598 442 539.50 500Q481 558 394 558Q307 558 248.50 500Q190 442 190 350Q190 258 248.50 200Z"  horiz-adv-x="788" vert-adv-y="1000"  />

      
      <glyph glyph-name="unid5" unicode="&#xd5;" d="M214 763Q214 824 231.50 863Q249 902 278 914.50Q307 927 341 922.50Q375 918 410 896Q436 880 444.50 885Q453 890 453 920L573 920Q573 859 555.50 820Q538 781 509 768.50Q480 756 446 760.50Q412 765 377 787Q352 803 343 798Q334 793 334 763L214 763M652 91Q652 91 599 38.50Q546-14 394-14Q242-14 136 91Q30 196 30 350Q30 504 136 609Q242 714 394 714Q546 714 652 609Q758 504 758 350Q758 196 652 91M248.50 200Q248.50 200 277.75 171Q307 142 394 142Q481 142 539.50 200Q598 258 598 350Q598 442 539.50 500Q481 558 394 558Q307 558 248.50 500Q190 442 190 350Q190 258 248.50 200Z"  horiz-adv-x="788" vert-adv-y="1000"  />

      
      <glyph glyph-name="unid6" unicode="&#xd6;" d="M352 772Q352 772 341 761Q330 750 299 750Q268 750 246 772Q224 794 224 825Q224 856 246 878Q268 900 299 900Q330 900 352 878Q374 856 374 825Q374 794 352 772M542 772Q542 772 531 761Q520 750 489 750Q458 750 436 772Q414 794 414 825Q414 856 436 878Q458 900 489 900Q520 900 542 878Q564 856 564 825Q564 794 542 772M652 91Q652 91 599 38.50Q546-14 394-14Q242-14 136 91Q30 196 30 350Q30 504 136 609Q242 714 394 714Q546 714 652 609Q758 504 758 350Q758 196 652 91M248.50 200Q248.50 200 277.75 171Q307 142 394 142Q481 142 539.50 200Q598 258 598 350Q598 442 539.50 500Q481 558 394 558Q307 558 248.50 500Q190 442 190 350Q190 258 248.50 200Z"  horiz-adv-x="788" vert-adv-y="1000"  />

      
      <glyph glyph-name="unid7" unicode="&#xd7;" d="M475 464L361 350L475 236L376 138L263 252L149 138L50 236L164 350L50 464L149 562L263 449L376 562L475 464Z"  horiz-adv-x="525" vert-adv-y="1000"  />

      
      <glyph glyph-name="unid8" unicode="&#xd8;" d="M662 604Q763 500 763 350Q763 196 657 91Q551-14 399-14Q293-14 202 42L156-14L81 29L136 96Q35 200 35 350Q35 504 141 609Q247 714 399 714Q505 714 596 658L642 714L717 671L662 604M195 350Q195 273 237 219L496 535Q452 558 399 558Q312 558 253.50 500Q195 442 195 350M399 142Q486 142 544.50 200Q603 258 603 350Q603 427 561 481L302 165Q346 142 399 142Z"  horiz-adv-x="793" vert-adv-y="1000"  />

      
      <glyph glyph-name="unid9" unicode="&#xd9;" d="M415 760L335 900L155 900L271 760L415 760M519 51Q519 51 481 18.50Q443-14 325-14Q207-14 131 51Q55 116 55 226L55 700L215 700L215 240Q215 142 325 142Q435 142 435 240L435 700L595 700L595 226Q595 116 519 51Z"  horiz-adv-x="650" vert-adv-y="1000"  />

      
      <glyph glyph-name="unida" unicode="&#xda;" d="M235 760L379 760L495 900L315 900L235 760M519 51Q519 51 481 18.50Q443-14 325-14Q207-14 131 51Q55 116 55 226L55 700L215 700L215 240Q215 142 325 142Q435 142 435 240L435 700L595 700L595 226Q595 116 519 51Z"  horiz-adv-x="650" vert-adv-y="1000"  />

      
      <glyph glyph-name="unidb" unicode="&#xdb;" d="M320 805L285 750L140 750L246 900L394 900L500 750L355 750L320 805M435 700L595 700L595 226Q595 116 519 51Q443-14 325-14Q207-14 131 51Q55 116 55 226L55 700L215 700L215 240Q215 142 325 142Q435 142 435 240L435 700Z"  horiz-adv-x="650" vert-adv-y="1000"  />

      
      <glyph glyph-name="unidc" unicode="&#xdc;" d="M283 762Q283 762 272 751Q261 740 230 740Q199 740 177 762Q155 784 155 815Q155 846 177 868Q199 890 230 890Q261 890 283 868Q305 846 305 815Q305 784 283 762M473 762Q473 762 462 751Q451 740 420 740Q389 740 367 762Q345 784 345 815Q345 846 367 868Q389 890 420 890Q451 890 473 868Q495 846 495 815Q495 784 473 762M519 51Q519 51 481 18.50Q443-14 325-14Q207-14 131 51Q55 116 55 226L55 700L215 700L215 240Q215 142 325 142Q435 142 435 240L435 700L595 700L595 226Q595 116 519 51Z"  horiz-adv-x="650" vert-adv-y="1000"  />

      
      <glyph glyph-name="unidd" unicode="&#xdd;" d="M485 900L369 760L225 760L305 900L485 900M630 700L395 269L395 0L235 0L235 269L0 700L182 700L315 430L448 700L630 700Z"  horiz-adv-x="630" vert-adv-y="1000"  />

      
      <glyph glyph-name="unide" unicode="&#xde;" d="M330 590Q430 590 500 520Q570 450 570 350Q570 250 500 180Q430 110 330 110L220 110L220 0L60 0L60 700L220 700L220 590L330 590M330 260Q363 260 386.50 286Q410 312 410 350Q410 388 386.50 414Q363 440 330 440L220 440L220 260L330 260Z"  horiz-adv-x="590" vert-adv-y="1000"  />

      
      <glyph glyph-name="unidf" unicode="&#xdf;" d="M276-7L276 125Q379 114 379 176Q379 204 324 280.50Q269 357 269 389Q269 415 296 455.50Q323 496 323 524Q323 546 308.50 562Q294 578 269 578Q240 578 222.50 560Q205 542 205 507L205 0L55 0L55 505Q55 600 114.50 657Q174 714 276 714Q366 714 419.50 666.50Q473 619 473 551Q473 503 448 459Q423 415 423 399Q423 377 449.50 337.50Q476 298 502.50 247Q529 196 529 146Q529-32 276-7Z"  horiz-adv-x="544" vert-adv-y="1000"  />

      
      <glyph glyph-name="unie0" unicode="&#xe0;" d="M400 560L256 560L140 700L320 700L400 560M418 500L568 500L568 0L418 0L418 47Q365-14 269-14Q170-14 100 62.50Q30 139 30 250Q30 361 100 437.50Q170 514 269 514Q365 514 418 453L418 500M213 161Q213 161 229.50 144.50Q246 128 299 128Q352 128 385 161Q418 194 418 250Q418 306 385 339Q352 372 299 372Q246 372 213 339Q180 306 180 250Q180 194 213 161Z"  horiz-adv-x="623" vert-adv-y="1000"  />

      
      <glyph glyph-name="unie1" unicode="&#xe1;" d="M480 700L364 560L220 560L300 700L480 700M418 500L568 500L568 0L418 0L418 47Q365-14 269-14Q170-14 100 62.50Q30 139 30 250Q30 361 100 437.50Q170 514 269 514Q365 514 418 453L418 500M213 161Q213 161 229.50 144.50Q246 128 299 128Q352 128 385 161Q418 194 418 250Q418 306 385 339Q352 372 299 372Q246 372 213 339Q180 306 180 250Q180 194 213 161Z"  horiz-adv-x="623" vert-adv-y="1000"  />

      
      <glyph glyph-name="unie2" unicode="&#xe2;" d="M305 605L270 550L125 550L231 700L379 700L485 550L340 550L305 605M418 500L568 500L568 0L418 0L418 47Q365-14 269-14Q170-14 100 62.50Q30 139 30 250Q30 361 100 437.50Q170 514 269 514Q365 514 418 453L418 500M213 161Q213 161 229.50 144.50Q246 128 299 128Q352 128 385 161Q418 194 418 250Q418 306 385 339Q352 372 299 372Q246 372 213 339Q180 306 180 250Q180 194 213 161Z"  horiz-adv-x="623" vert-adv-y="1000"  />

      
      <glyph glyph-name="unie3" unicode="&#xe3;" d="M293 577Q268 593 259 588Q250 583 250 553L130 553Q130 614 147.50 653Q165 692 194 704.50Q223 717 257 712.50Q291 708 326 686Q352 670 360.50 675Q369 680 369 710L489 710Q489 649 471.50 610Q454 571 425 558.50Q396 546 362 550.50Q328 555 293 577M418 500L568 500L568 0L418 0L418 47Q365-14 269-14Q170-14 100 62.50Q30 139 30 250Q30 361 100 437.50Q170 514 269 514Q365 514 418 453L418 500M213 161Q213 161 229.50 144.50Q246 128 299 128Q352 128 385 161Q418 194 418 250Q418 306 385 339Q352 372 299 372Q246 372 213 339Q180 306 180 250Q180 194 213 161Z"  horiz-adv-x="623" vert-adv-y="1000"  />

      
      <glyph glyph-name="unie4" unicode="&#xe4;" d="M268 562Q268 562 257 551Q246 540 215 540Q184 540 162 562Q140 584 140 615Q140 646 162 668Q184 690 215 690Q246 690 268 668Q290 646 290 615Q290 584 268 562M458 562Q458 562 447 551Q436 540 405 540Q374 540 352 562Q330 584 330 615Q330 646 352 668Q374 690 405 690Q436 690 458 668Q480 646 480 615Q480 584 458 562M418 500L568 500L568 0L418 0L418 47Q365-14 269-14Q170-14 100 62.50Q30 139 30 250Q30 361 100 437.50Q170 514 269 514Q365 514 418 453L418 500M213 161Q213 161 229.50 144.50Q246 128 299 128Q352 128 385 161Q418 194 418 250Q418 306 385 339Q352 372 299 372Q246 372 213 339Q180 306 180 250Q180 194 213 161Z"  horiz-adv-x="623" vert-adv-y="1000"  />

      
      <glyph glyph-name="unie5" unicode="&#xe5;" d="M310 535Q252 535 214.50 570.50Q177 606 177 660Q177 714 214.50 749.50Q252 785 310 785Q369 785 406 749.50Q443 714 443 660Q443 606 406 570.50Q369 535 310 535M336.50 684.50Q336.50 684.50 331.75 689.25Q327 694 310 694Q293 694 284 684.50Q275 675 275 660Q275 645 284 635.50Q293 626 310 626Q327 626 336.50 635.50Q346 645 346 660Q346 675 336.50 684.50M418 500L568 500L568 0L418 0L418 47Q365-14 269-14Q170-14 100 62.50Q30 139 30 250Q30 361 100 437.50Q170 514 269 514Q365 514 418 453L418 500M213 161Q213 161 229.50 144.50Q246 128 299 128Q352 128 385 161Q418 194 418 250Q418 306 385 339Q352 372 299 372Q246 372 213 339Q180 306 180 250Q180 194 213 161Z"  horiz-adv-x="623" vert-adv-y="1000"  />

      
      <glyph glyph-name="unie6" unicode="&#xe6;" d="M579 190Q606 120 699 120Q760 120 795 158L915 89Q877 36 831.50 11Q786-14 717-14Q620-14 558 54L558 0L418 0L418 47Q365-14 269-14Q170-14 100 62.50Q30 139 30 250Q30 361 100 437.50Q170 514 269 514Q365 514 418 453L418 500L558 500L558 447Q619 514 713 514Q820 514 880 440.50Q940 367 940 250Q940 218 934 190L579 190M576 304L791 304Q769 381 687 381Q601 381 576 304M213 161Q213 161 229.50 144.50Q246 128 299 128Q352 128 385 161Q418 194 418 250Q418 306 385 339Q352 372 299 372Q246 372 213 339Q180 306 180 250Q180 194 213 161Z"  horiz-adv-x="970" vert-adv-y="1000"  />

      
      <glyph glyph-name="unie7" unicode="&#xe7;" d="M293 134Q364 134 390 190L521 115Q470 22 362-6L362-46Q387-52 406-71Q425-90 425-123Q425-229 200-216L200-112Q295-119 295-98Q295-83 242-78L242-9Q148 8 89 80Q30 152 30 250Q30 362 105.50 438Q181 514 295 514Q367 514 427.50 479Q488 444 521 386L390 310Q363 366 293 366Q244 366 212 333.50Q180 301 180 250Q180 199 212 166.50Q244 134 293 134Z"  horiz-adv-x="531" vert-adv-y="1000"  />

      
      <glyph glyph-name="unie8" unicode="&#xe8;" d="M380 565L236 565L120 705L300 705L380 565M189 190Q215 120 309 120Q370 120 405 158L525 89Q451-14 307-14Q181-14 105.50 61Q30 136 30 250Q30 363 104.50 438.50Q179 514 296 514Q405 514 477.50 438.50Q550 363 550 250Q550 218 544 190L189 190M186 302L401 302Q379 381 295 381Q208 381 186 302Z"  horiz-adv-x="580" vert-adv-y="1000"  />

      
      <glyph glyph-name="unie9" unicode="&#xe9;" d="M460 705L344 565L200 565L280 705L460 705M189 190Q215 120 309 120Q370 120 405 158L525 89Q451-14 307-14Q181-14 105.50 61Q30 136 30 250Q30 363 104.50 438.50Q179 514 296 514Q405 514 477.50 438.50Q550 363 550 250Q550 218 544 190L189 190M186 302L401 302Q379 381 295 381Q208 381 186 302Z"  horiz-adv-x="580" vert-adv-y="1000"  />

      
      <glyph glyph-name="uniea" unicode="&#xea;" d="M285 610L250 555L105 555L211 705L359 705L465 555L320 555L285 610M189 190Q215 120 309 120Q370 120 405 158L525 89Q451-14 307-14Q181-14 105.50 61Q30 136 30 250Q30 363 104.50 438.50Q179 514 296 514Q405 514 477.50 438.50Q550 363 550 250Q550 218 544 190L189 190M186 302L401 302Q379 381 295 381Q208 381 186 302Z"  horiz-adv-x="580" vert-adv-y="1000"  />

      
      <glyph glyph-name="unieb" unicode="&#xeb;" d="M248 567Q248 567 237 556Q226 545 195 545Q164 545 142 567Q120 589 120 620Q120 651 142 673Q164 695 195 695Q226 695 248 673Q270 651 270 620Q270 589 248 567M438 567Q438 567 427 556Q416 545 385 545Q354 545 332 567Q310 589 310 620Q310 651 332 673Q354 695 385 695Q416 695 438 673Q460 651 460 620Q460 589 438 567M189 190Q215 120 309 120Q370 120 405 158L525 89Q451-14 307-14Q181-14 105.50 61Q30 136 30 250Q30 363 104.50 438.50Q179 514 296 514Q405 514 477.50 438.50Q550 363 550 250Q550 218 544 190L189 190M186 302L401 302Q379 381 295 381Q208 381 186 302Z"  horiz-adv-x="580" vert-adv-y="1000"  />

      
      <glyph glyph-name="uniec" unicode="&#xec;" d="M200 550L160 700L-10 700L56 550L200 550M205 0L55 0L55 500L205 500L205 0Z"  horiz-adv-x="260" vert-adv-y="1000"  />

      
      <glyph glyph-name="unied" unicode="&#xed;" d="M55 550L199 550L265 700L95 700L55 550M55 0L55 500L205 500L205 0L55 0Z"  horiz-adv-x="260" vert-adv-y="1000"  />

      
      <glyph glyph-name="uniee" unicode="&#xee;" d="M130 594L105 550L-40 550L56 700L204 700L300 550L155 550L130 594M55 0L55 500L205 500L205 0L55 0Z"  horiz-adv-x="260" vert-adv-y="1000"  />

      
      <glyph glyph-name="unief" unicode="&#xef;" d="M93 567Q93 567 82 556Q71 545 40 545Q9 545-13 567Q-35 589-35 620Q-35 651-13 673Q9 695 40 695Q71 695 93 673Q115 651 115 620Q115 589 93 567M273 567Q273 567 262 556Q251 545 220 545Q189 545 167 567Q145 589 145 620Q145 651 167 673Q189 695 220 695Q251 695 273 673Q295 651 295 620Q295 589 273 567M55 0L55 500L205 500L205 0L55 0Z"  horiz-adv-x="260" vert-adv-y="1000"  />

      
      <glyph glyph-name="unif0" unicode="&#xf0;" d="M490 370Q536 307 536 230Q536 119 462 53.50Q388-12 283-12Q178-12 104 53.50Q30 119 30 230Q30 321 93.50 386.50Q157 452 250 454L199 523L67 462L67 562L145 598L72 700L244 700L275 659L394 714L394 614L330 584L490 370M208 155Q208 155 222 141.50Q236 128 283 128Q330 128 358 155Q386 182 386 230Q386 263 368 289Q338 328 283 328Q237 328 208.50 301.50Q180 275 180 230Q180 182 208 155Z"  horiz-adv-x="566" vert-adv-y="1000"  />

      
      <glyph glyph-name="unif1" unicode="&#xf1;" d="M284 587Q258 603 249.50 598Q241 593 241 563L121 563Q121 624 138.50 663Q156 702 185 714.50Q214 727 248 722.50Q282 718 317 696Q342 680 351 685Q360 690 360 720L480 720Q480 659 462.50 620Q445 581 416 568.50Q387 556 353 560.50Q319 565 284 587M348 514Q428 514 481.50 459Q535 404 535 307L535 0L385 0L385 285Q385 329 360.50 352.50Q336 376 298 376Q255 376 230 350Q205 324 205 273L205 0L55 0L55 500L205 500L205 453Q250 514 348 514Z"  horiz-adv-x="583" vert-adv-y="1000"  />

      
      <glyph glyph-name="unif2" unicode="&#xf2;" d="M385 570L305 710L125 710L241 570L385 570M483 62.50Q483 62.50 444.50 24.25Q406-14 295-14Q184-14 107 62.50Q30 139 30 250Q30 361 107 437.50Q184 514 295 514Q406 514 483 437.50Q560 361 560 250Q560 139 483 62.50M213 165Q213 165 229.50 148.50Q246 132 295 132Q344 132 377 165Q410 198 410 250Q410 302 377 335Q344 368 295 368Q246 368 213 335Q180 302 180 250Q180 198 213 165Z"  horiz-adv-x="590" vert-adv-y="1000"  />

      
      <glyph glyph-name="unif3" unicode="&#xf3;" d="M205 570L349 570L465 710L285 710L205 570M483 62.50Q483 62.50 444.50 24.25Q406-14 295-14Q184-14 107 62.50Q30 139 30 250Q30 361 107 437.50Q184 514 295 514Q406 514 483 437.50Q560 361 560 250Q560 139 483 62.50M213 165Q213 165 229.50 148.50Q246 132 295 132Q344 132 377 165Q410 198 410 250Q410 302 377 335Q344 368 295 368Q246 368 213 335Q180 302 180 250Q180 198 213 165Z"  horiz-adv-x="590" vert-adv-y="1000"  />

      
      <glyph glyph-name="unif4" unicode="&#xf4;" d="M290 615L255 560L110 560L216 710L364 710L470 560L325 560L290 615M107 437.50Q107 437.50 145.50 475.75Q184 514 295 514Q406 514 483 437.50Q560 361 560 250Q560 139 483 62.50Q406-14 295-14Q184-14 107 62.50Q30 139 30 250Q30 361 107 437.50M213 165Q213 165 229.50 148.50Q246 132 295 132Q344 132 377 165Q410 198 410 250Q410 302 377 335Q344 368 295 368Q246 368 213 335Q180 302 180 250Q180 198 213 165Z"  horiz-adv-x="590" vert-adv-y="1000"  />

      
      <glyph glyph-name="unif5" unicode="&#xf5;" d="M115 563Q115 624 132.50 663Q150 702 179 714.50Q208 727 242 722.50Q276 718 311 696Q336 680 345 685Q354 690 354 720L474 720Q474 659 456.50 620Q439 581 410 568.50Q381 556 347 560.50Q313 565 278 587Q252 603 243.50 598Q235 593 235 563L115 563M483 62.50Q483 62.50 444.50 24.25Q406-14 295-14Q184-14 107 62.50Q30 139 30 250Q30 361 107 437.50Q184 514 295 514Q406 514 483 437.50Q560 361 560 250Q560 139 483 62.50M213 165Q213 165 229.50 148.50Q246 132 295 132Q344 132 377 165Q410 198 410 250Q410 302 377 335Q344 368 295 368Q246 368 213 335Q180 302 180 250Q180 198 213 165Z"  horiz-adv-x="590" vert-adv-y="1000"  />

      
      <glyph glyph-name="unif6" unicode="&#xf6;" d="M253 572Q253 572 242 561Q231 550 200 550Q169 550 147 572Q125 594 125 625Q125 656 147 678Q169 700 200 700Q231 700 253 678Q275 656 275 625Q275 594 253 572M443 572Q443 572 432 561Q421 550 390 550Q359 550 337 572Q315 594 315 625Q315 656 337 678Q359 700 390 700Q421 700 443 678Q465 656 465 625Q465 594 443 572M483 62.50Q483 62.50 444.50 24.25Q406-14 295-14Q184-14 107 62.50Q30 139 30 250Q30 361 107 437.50Q184 514 295 514Q406 514 483 437.50Q560 361 560 250Q560 139 483 62.50M213 165Q213 165 229.50 148.50Q246 132 295 132Q344 132 377 165Q410 198 410 250Q410 302 377 335Q344 368 295 368Q246 368 213 335Q180 302 180 250Q180 198 213 165Z"  horiz-adv-x="590" vert-adv-y="1000"  />

      
      <glyph glyph-name="unif7" unicode="&#xf7;" d="M344 483Q344 483 331 470Q318 457 280 457Q242 457 216 483Q190 509 190 547Q190 585 216 611Q242 637 280 637Q318 637 344 611Q370 585 370 547Q370 509 344 483M40 280L40 420L520 420L520 280L40 280M344 89Q344 89 331 76Q318 63 280 63Q242 63 216 89Q190 115 190 153Q190 191 216 217Q242 243 280 243Q318 243 344 217Q370 191 370 153Q370 115 344 89Z"  horiz-adv-x="560" vert-adv-y="1000"  />

      
      <glyph glyph-name="unif8" unicode="&#xf8;" d="M490 430Q560 355 560 250Q560 139 483 62.50Q406-14 295-14Q218-14 154 25L125-10L64 24L101 69Q30 145 30 250Q30 361 107 437.50Q184 514 295 514Q374 514 436 474L466 510L527 475L490 430M180 250Q180 213 197 185L341 359Q320 368 295 368Q246 368 213 335Q180 302 180 250M295 132Q344 132 377 165Q410 198 410 250Q410 285 394 314L250 140Q271 132 295 132Z"  horiz-adv-x="590" vert-adv-y="1000"  />

      
      <glyph glyph-name="unif9" unicode="&#xf9;" d="M378 560L234 560L118 700L298 700L378 560M378 500L528 500L528 0L378 0L378 47Q333-14 235-14Q155-14 101.50 41Q48 96 48 193L48 500L198 500L198 215Q198 171 222.50 147.50Q247 124 285 124Q328 124 353 150Q378 176 378 227L378 500Z"  horiz-adv-x="583" vert-adv-y="1000"  />

      
      <glyph glyph-name="unifa" unicode="&#xfa;" d="M458 700L342 560L198 560L278 700L458 700M378 500L528 500L528 0L378 0L378 47Q333-14 235-14Q155-14 101.50 41Q48 96 48 193L48 500L198 500L198 215Q198 171 222.50 147.50Q247 124 285 124Q328 124 353 150Q378 176 378 227L378 500Z"  horiz-adv-x="583" vert-adv-y="1000"  />

      
      <glyph glyph-name="unifb" unicode="&#xfb;" d="M283 605L248 550L103 550L209 700L357 700L463 550L318 550L283 605M378 500L528 500L528 0L378 0L378 47Q333-14 235-14Q155-14 101.50 41Q48 96 48 193L48 500L198 500L198 215Q198 171 222.50 147.50Q247 124 285 124Q328 124 353 150Q378 176 378 227L378 500Z"  horiz-adv-x="583" vert-adv-y="1000"  />

      
      <glyph glyph-name="unifc" unicode="&#xfc;" d="M246 562Q246 562 235 551Q224 540 193 540Q162 540 140 562Q118 584 118 615Q118 646 140 668Q162 690 193 690Q224 690 246 668Q268 646 268 615Q268 584 246 562M436 562Q436 562 425 551Q414 540 383 540Q352 540 330 562Q308 584 308 615Q308 646 330 668Q352 690 383 690Q414 690 436 668Q458 646 458 615Q458 584 436 562M378 500L528 500L528 0L378 0L378 47Q333-14 235-14Q155-14 101.50 41Q48 96 48 193L48 500L198 500L198 215Q198 171 222.50 147.50Q247 124 285 124Q328 124 353 150Q378 176 378 227L378 500Z"  horiz-adv-x="583" vert-adv-y="1000"  />

      
      <glyph glyph-name="unifd" unicode="&#xfd;" d="M436 700L320 560L176 560L256 700L436 700M370 500L530 500L359 15Q317-103 248.50-154Q180-205 74-200L74-60Q126-60 154-41.50Q182-23 199 23L0 500L165 500L276 194L370 500Z"  horiz-adv-x="530" vert-adv-y="1000"  />

      
      <glyph glyph-name="unife" unicode="&#xfe;" d="M354 514Q453 514 523 437.50Q593 361 593 250Q593 139 523 62.50Q453-14 354-14Q258-14 205 47L205-200L55-200L55 700L205 700L205 453Q258 514 354 514M238.50 161Q238.50 161 255.25 144.50Q272 128 324 128Q376 128 409.50 161Q443 194 443 250Q443 306 409.50 339Q376 372 324 372Q272 372 238.50 339Q205 306 205 250Q205 194 238.50 161Z"  horiz-adv-x="623" vert-adv-y="1000"  />

      
      <glyph glyph-name="uniff" unicode="&#xff;" d="M224 562Q224 562 213 551Q202 540 171 540Q140 540 118 562Q96 584 96 615Q96 646 118 668Q140 690 171 690Q202 690 224 668Q246 646 246 615Q246 584 224 562M414 562Q414 562 403 551Q392 540 361 540Q330 540 308 562Q286 584 286 615Q286 646 308 668Q330 690 361 690Q392 690 414 668Q436 646 436 615Q436 584 414 562M370 500L530 500L359 15Q317-103 248.50-154Q180-205 74-200L74-60Q126-60 154-41.50Q182-23 199 23L0 500L165 500L276 194L370 500Z"  horiz-adv-x="530" vert-adv-y="1000"  />

      
      <glyph glyph-name="uni0100" unicode="&#x0100;" d="M490 879L490 759L190 759L190 879L490 879M505 0L470 110L210 110L175 0L0 0L238 700L442 700L680 0L505 0M258 260L422 260L340 517L258 260Z"  horiz-adv-x="680" vert-adv-y="1000"  />

      
      <glyph glyph-name="uni0101" unicode="&#x0101;" d="M460 679L460 559L160 559L160 679L460 679M418 500L568 500L568 0L418 0L418 47Q365-14 269-14Q170-14 100 62.50Q30 139 30 250Q30 361 100 437.50Q170 514 269 514Q365 514 418 453L418 500M213 161Q213 161 229.50 144.50Q246 128 299 128Q352 128 385 161Q418 194 418 250Q418 306 385 339Q352 372 299 372Q246 372 213 339Q180 306 180 250Q180 194 213 161Z"  horiz-adv-x="623" vert-adv-y="1000"  />

      
      <glyph glyph-name="uni0102" unicode="&#x0102;" d="M469.50 781Q469.50 781 446.75 761.50Q424 742 340 742Q256 742 210.50 781Q165 820 165 892L297 892Q297 846 340 846Q383 846 383 892L515 892Q515 820 469.50 781M505 0L470 110L210 110L175 0L0 0L238 700L442 700L680 0L505 0M258 260L422 260L340 517L258 260Z"  horiz-adv-x="680" vert-adv-y="1000"  />

      
      <glyph glyph-name="uni0103" unicode="&#x0103;" d="M439.50 581Q439.50 581 416.75 561.50Q394 542 310 542Q226 542 180.50 581Q135 620 135 692L267 692Q267 646 310 646Q353 646 353 692L485 692Q485 620 439.50 581M418 500L568 500L568 0L418 0L418 47Q365-14 269-14Q170-14 100 62.50Q30 139 30 250Q30 361 100 437.50Q170 514 269 514Q365 514 418 453L418 500M213 161Q213 161 229.50 144.50Q246 128 299 128Q352 128 385 161Q418 194 418 250Q418 306 385 339Q352 372 299 372Q246 372 213 339Q180 306 180 250Q180 194 213 161Z"  horiz-adv-x="623" vert-adv-y="1000"  />

      
      <glyph glyph-name="uni0104" unicode="&#x0104;" d="M657-111Q664-112 680-107L680-197Q638-214 592-214Q548-214 520-191Q492-168 492-123Q492-67 556 0L505 0L470 110L210 110L175 0L0 0L238 700L442 700L680 0Q635-50 635-85Q633-111 657-111M258 260L422 260L340 517L258 260Z"  horiz-adv-x="680" vert-adv-y="1000"  />

      
      <glyph glyph-name="uni0105" unicode="&#x0105;" d="M568 0Q523-50 523-85Q521-111 545-111Q552-112 568-107L568-197Q526-214 480-214Q436-214 408-191Q380-168 380-123Q380-67 444 0L418 0L418 47Q365-14 269-14Q170-14 100 62.50Q30 139 30 250Q30 361 100 437.50Q170 514 269 514Q365 514 418 453L418 500L568 500L568 0M213 161Q213 161 229.50 144.50Q246 128 299 128Q352 128 385 161Q418 194 418 250Q418 306 385 339Q352 372 299 372Q246 372 213 339Q180 306 180 250Q180 194 213 161Z"  horiz-adv-x="623" vert-adv-y="1000"  />

      
      <glyph glyph-name="uni0106" unicode="&#x0106;" d="M304 770L448 770L564 910L384 910L304 770M394-14Q237-14 133.50 90.50Q30 195 30 350Q30 505 133.50 609.50Q237 714 394 714Q488 714 568 670.50Q648 627 694 552L556 472Q533 513 490 535.50Q447 558 394 558Q301 558 245.50 501Q190 444 190 350Q190 256 245.50 199Q301 142 394 142Q447 142 490.50 165Q534 188 556 228L694 148Q649 73 569 29.50Q489-14 394-14Z"  horiz-adv-x="719" vert-adv-y="1000"  />

      
      <glyph glyph-name="uni0107" unicode="&#x0107;" d="M207 560L351 560L467 700L287 700L207 560M295-14Q181-14 105.50 62Q30 138 30 250Q30 362 105.50 438Q181 514 295 514Q367 514 427.50 479Q488 444 521 386L390 310Q363 366 293 366Q244 366 212 333.50Q180 301 180 250Q180 199 212 166.50Q244 134 293 134Q364 134 390 190L521 115Q488 56 428 21Q368-14 295-14Z"  horiz-adv-x="531" vert-adv-y="1000"  />

      
      <glyph glyph-name="uni010A" unicode="&#x010A;" d="M453.50 780.50Q453.50 780.50 440.75 767.75Q428 755 394 755Q360 755 334.50 780.50Q309 806 309 840Q309 874 334.50 899.50Q360 925 394 925Q428 925 453.50 899.50Q479 874 479 840Q479 806 453.50 780.50M394-14Q237-14 133.50 90.50Q30 195 30 350Q30 505 133.50 609.50Q237 714 394 714Q488 714 568 670.50Q648 627 694 552L556 472Q533 513 490 535.50Q447 558 394 558Q301 558 245.50 501Q190 444 190 350Q190 256 245.50 199Q301 142 394 142Q447 142 490.50 165Q534 188 556 228L694 148Q649 73 569 29.50Q489-14 394-14Z"  horiz-adv-x="719" vert-adv-y="1000"  />

      
      <glyph glyph-name="uni010B" unicode="&#x010B;" d="M357 570.50Q357 570.50 344.50 557.75Q332 545 297 545Q262 545 237 570.50Q212 596 212 630Q212 664 237 689.50Q262 715 297 715Q332 715 357 689.50Q382 664 382 630Q382 596 357 570.50M295-14Q181-14 105.50 62Q30 138 30 250Q30 362 105.50 438Q181 514 295 514Q367 514 427.50 479Q488 444 521 386L390 310Q363 366 293 366Q244 366 212 333.50Q180 301 180 250Q180 199 212 166.50Q244 134 293 134Q364 134 390 190L521 115Q488 56 428 21Q368-14 295-14Z"  horiz-adv-x="531" vert-adv-y="1000"  />

      
      <glyph glyph-name="uni010C" unicode="&#x010C;" d="M315 760L209 910L354 910L389 855L424 910L569 910L463 760L315 760M394 142Q447 142 490.50 165Q534 188 556 228L694 148Q649 73 569 29.50Q489-14 394-14Q237-14 133.50 90.50Q30 195 30 350Q30 505 133.50 609.50Q237 714 394 714Q488 714 568 670.50Q648 627 694 552L556 472Q533 513 490 535.50Q447 558 394 558Q301 558 245.50 501Q190 444 190 350Q190 256 245.50 199Q301 142 394 142Z"  horiz-adv-x="719" vert-adv-y="1000"  />

      
      <glyph glyph-name="uni010D" unicode="&#x010D;" d="M218 550L112 700L257 700L292 645L327 700L472 700L366 550L218 550M293 134Q364 134 390 190L521 115Q488 56 428 21Q368-14 295-14Q181-14 105.50 62Q30 138 30 250Q30 362 105.50 438Q181 514 295 514Q367 514 427.50 479Q488 444 521 386L390 310Q363 366 293 366Q244 366 212 333.50Q180 301 180 250Q180 199 212 166.50Q244 134 293 134Z"  horiz-adv-x="531" vert-adv-y="1000"  />

      
      <glyph glyph-name="uni010E" unicode="&#x010E;" d="M251 750L145 900L290 900L325 845L360 900L505 900L399 750L251 750M340 700Q485 700 582.50 599.50Q680 499 680 350Q680 201 582.50 100.50Q485 0 340 0L60 0L60 700L340 700M340 154Q423 154 474.50 207.50Q526 261 526 350Q526 439 474.50 492.50Q423 546 340 546L220 546L220 154L340 154Z"  horiz-adv-x="710" vert-adv-y="1000"  />

      
      <glyph glyph-name="uni010F" unicode="&#x010F;" d="M418 453L418 700L568 700L568 0L418 0L418 47Q365-14 269-14Q170-14 100 62.50Q30 139 30 250Q30 361 100 437.50Q170 514 269 514Q365 514 418 453M616 700L756 700L726 490L606 490L616 700M213 161Q213 161 229.50 144.50Q246 128 299 128Q352 128 385 161Q418 194 418 250Q418 306 385 339Q352 372 299 372Q246 372 213 339Q180 306 180 250Q180 194 213 161Z"  horiz-adv-x="746" vert-adv-y="1000"  />

      
      <glyph glyph-name="uni0110" unicode="&#x0110;" d="M380 700Q525 700 622.50 599.50Q720 499 720 350Q720 201 622.50 100.50Q525 0 380 0L100 0L100 268L20 268L20 412L100 412L100 700L380 700M380 154Q463 154 514.50 207.50Q566 261 566 350Q566 439 514.50 492.50Q463 546 380 546L260 546L260 412L400 412L400 268L260 268L260 154L380 154Z"  horiz-adv-x="750" vert-adv-y="1000"  />

      
      <glyph glyph-name="uni0111" unicode="&#x0111;" d="M628 640L628 546L568 546L568 0L418 0L418 47Q365-14 269-14Q170-14 100 62.50Q30 139 30 250Q30 361 100 437.50Q170 514 269 514Q365 514 418 453L418 546L278 546L278 640L418 640L418 700L568 700L568 640L628 640M213 161Q213 161 229.50 144.50Q246 128 299 128Q352 128 385 161Q418 194 418 250Q418 306 385 339Q352 372 299 372Q246 372 213 339Q180 306 180 250Q180 194 213 161Z"  horiz-adv-x="628" vert-adv-y="1000"  />

      
      <glyph glyph-name="uni0112" unicode="&#x0112;" d="M428 879L428 759L128 759L128 879L428 879M220 154L500 154L500 0L60 0L60 700L495 700L495 546L220 546L220 430L470 430L470 278L220 278L220 154Z"  horiz-adv-x="530" vert-adv-y="1000"  />

      
      <glyph glyph-name="uni0113" unicode="&#x0113;" d="M440 684L440 564L140 564L140 684L440 684M189 190Q215 120 309 120Q370 120 405 158L525 89Q451-14 307-14Q181-14 105.50 61Q30 136 30 250Q30 363 104.50 438.50Q179 514 296 514Q405 514 477.50 438.50Q550 363 550 250Q550 218 544 190L189 190M186 302L401 302Q379 381 295 381Q208 381 186 302Z"  horiz-adv-x="580" vert-adv-y="1000"  />

      
      <glyph glyph-name="uni0116" unicode="&#x0116;" d="M337.50 770.50Q337.50 770.50 324.75 757.75Q312 745 278 745Q244 745 218.50 770.50Q193 796 193 830Q193 864 218.50 889.50Q244 915 278 915Q312 915 337.50 889.50Q363 864 363 830Q363 796 337.50 770.50M220 154L500 154L500 0L60 0L60 700L495 700L495 546L220 546L220 430L470 430L470 278L220 278L220 154Z"  horiz-adv-x="530" vert-adv-y="1000"  />

      
      <glyph glyph-name="uni0117" unicode="&#x0117;" d="M349.50 575Q349.50 575 336.75 562.50Q324 550 290 550Q256 550 230.50 575Q205 600 205 635Q205 670 230.50 695Q256 720 290 720Q324 720 349.50 695Q375 670 375 635Q375 600 349.50 575M189 190Q215 120 309 120Q370 120 405 158L525 89Q451-14 307-14Q181-14 105.50 61Q30 136 30 250Q30 363 104.50 438.50Q179 514 296 514Q405 514 477.50 438.50Q550 363 550 250Q550 218 544 190L189 190M186 302L401 302Q379 381 295 381Q208 381 186 302Z"  horiz-adv-x="580" vert-adv-y="1000"  />

      
      <glyph glyph-name="uni0118" unicode="&#x0118;" d="M500 0Q455-50 455-85Q453-111 477-111Q484-112 500-107L500-197Q458-214 412-214Q368-214 340-191Q312-168 312-123Q312-67 376 0L60 0L60 700L495 700L495 546L220 546L220 430L470 430L470 278L220 278L220 154L500 154L500 0Z"  horiz-adv-x="530" vert-adv-y="1000"  />

      
      <glyph glyph-name="uni0119" unicode="&#x0119;" d="M189 190Q215 120 309 120Q370 120 405 158L525 89Q510 68 489 49Q415-31 415-85Q415-111 437-111Q444-112 460-107L460-197Q418-214 372-214Q328-214 300-191Q272-168 272-123Q272-65 339-13Q329-14 307-14Q181-14 105.50 61Q30 136 30 250Q30 363 104.50 438.50Q179 514 296 514Q405 514 477.50 438.50Q550 363 550 250Q550 218 544 190L189 190M186 302L401 302Q379 381 295 381Q208 381 186 302Z"  horiz-adv-x="580" vert-adv-y="1000"  />

      
      <glyph glyph-name="uni011A" unicode="&#x011A;" d="M199 750L93 900L238 900L273 845L308 900L453 900L347 750L199 750M220 154L500 154L500 0L60 0L60 700L495 700L495 546L220 546L220 430L470 430L470 278L220 278L220 154Z"  horiz-adv-x="530" vert-adv-y="1000"  />

      
      <glyph glyph-name="uni011B" unicode="&#x011B;" d="M211 555L105 705L250 705L285 650L320 705L465 705L359 555L211 555M189 190Q215 120 309 120Q370 120 405 158L525 89Q451-14 307-14Q181-14 105.50 61Q30 136 30 250Q30 363 104.50 438.50Q179 514 296 514Q405 514 477.50 438.50Q550 363 550 250Q550 218 544 190L189 190M186 302L401 302Q379 381 295 381Q208 381 186 302Z"  horiz-adv-x="580" vert-adv-y="1000"  />

      
      <glyph glyph-name="uni011E" unicode="&#x011E;" d="M528.50 791Q528.50 791 505.75 771.50Q483 752 399 752Q315 752 269.50 791Q224 830 224 902L356 902Q356 856 399 856Q442 856 442 902L574 902Q574 830 528.50 791M753 390L753 330Q753 173 655.50 79.50Q558-14 408-14Q245-14 137.50 91Q30 196 30 349Q30 502 136.50 608Q243 714 397 714Q495 714 576.50 670Q658 626 703 554L567 476Q544 512 498.50 535Q453 558 396 558Q307 558 248.50 499Q190 440 190 348Q190 257 250 199.50Q310 142 410 142Q549 142 589 250L402 250L402 390L753 390Z"  horiz-adv-x="783" vert-adv-y="1000"  />

      
      <glyph glyph-name="uni011F" unicode="&#x011F;" d="M422.50 591Q422.50 591 399.75 571.50Q377 552 293 552Q209 552 163.50 591Q118 630 118 702L250 702Q250 656 293 656Q336 656 336 702L468 702Q468 630 422.50 591M422 500L568 500L568 25Q568-93 491-153.50Q414-214 304-214Q135-214 67-93L195-19Q229-82 309-82Q362-82 392-54.50Q422-27 422 25L422 71Q370 6 276 6Q171 6 100.50 80.50Q30 155 30 260Q30 365 100.50 439.50Q171 514 276 514Q370 514 422 449L422 500M214 176Q214 176 231 160Q248 144 301 144Q354 144 388 176Q422 208 422 260Q422 312 388 344Q354 376 301 376Q248 376 214 344Q180 312 180 260Q180 208 214 176Z"  horiz-adv-x="623" vert-adv-y="1000"  />

      
      <glyph glyph-name="uni0120" unicode="&#x0120;" d="M459 780.50Q459 780.50 446.50 767.75Q434 755 399 755Q364 755 339 780.50Q314 806 314 840Q314 874 339 899.50Q364 925 399 925Q434 925 459 899.50Q484 874 484 840Q484 806 459 780.50M753 390L753 330Q753 173 655.50 79.50Q558-14 408-14Q245-14 137.50 91Q30 196 30 349Q30 502 136.50 608Q243 714 397 714Q495 714 576.50 670Q658 626 703 554L567 476Q544 512 498.50 535Q453 558 396 558Q307 558 248.50 499Q190 440 190 348Q190 257 250 199.50Q310 142 410 142Q549 142 589 250L402 250L402 390L753 390Z"  horiz-adv-x="783" vert-adv-y="1000"  />

      
      <glyph glyph-name="uni0121" unicode="&#x0121;" d="M353 580.50Q353 580.50 340.50 567.75Q328 555 293 555Q258 555 233 580.50Q208 606 208 640Q208 674 233 699.50Q258 725 293 725Q328 725 353 699.50Q378 674 378 640Q378 606 353 580.50M422 500L568 500L568 25Q568-93 491-153.50Q414-214 304-214Q135-214 67-93L195-19Q229-82 309-82Q362-82 392-54.50Q422-27 422 25L422 71Q370 6 276 6Q171 6 100.50 80.50Q30 155 30 260Q30 365 100.50 439.50Q171 514 276 514Q370 514 422 449L422 500M214 176Q214 176 231 160Q248 144 301 144Q354 144 388 176Q422 208 422 260Q422 312 388 344Q354 376 301 376Q248 376 214 344Q180 312 180 260Q180 208 214 176Z"  horiz-adv-x="623" vert-adv-y="1000"  />

      
      <glyph glyph-name="uni0122" unicode="&#x0122;" d="M753 390L753 330Q753 173 655.50 79.50Q558-14 408-14Q245-14 137.50 91Q30 196 30 349Q30 502 136.50 608Q243 714 397 714Q495 714 576.50 670Q658 626 703 554L567 476Q544 512 498.50 535Q453 558 396 558Q307 558 248.50 499Q190 440 190 348Q190 257 250 199.50Q310 142 410 142Q549 142 589 250L402 250L402 390L753 390M327-270L337-60L477-60L447-270L327-270Z"  horiz-adv-x="783" vert-adv-y="1000"  />

      
      <glyph glyph-name="uni0123" unicode="&#x0123;" d="M366 790L356 580L216 580L246 790L366 790M422 500L568 500L568 25Q568-93 491-153.50Q414-214 304-214Q135-214 67-93L195-19Q229-82 309-82Q362-82 392-54.50Q422-27 422 25L422 71Q370 6 276 6Q171 6 100.50 80.50Q30 155 30 260Q30 365 100.50 439.50Q171 514 276 514Q370 514 422 449L422 500M214 176Q214 176 231 160Q248 144 301 144Q354 144 388 176Q422 208 422 260Q422 312 388 344Q354 376 301 376Q248 376 214 344Q180 312 180 260Q180 208 214 176Z"  horiz-adv-x="623" vert-adv-y="1000"  />

      
      <glyph glyph-name="uni0126" unicode="&#x0126;" d="M680 613L680 497L620 497L620 0L460 0L460 253L240 253L240 0L80 0L80 497L20 497L20 613L80 613L80 700L240 700L240 613L460 613L460 700L620 700L620 613L680 613M460 407L460 497L240 497L240 407L460 407Z"  horiz-adv-x="700" vert-adv-y="1000"  />

      
      <glyph glyph-name="uni0127" unicode="&#x0127;" d="M353 514Q433 514 486.50 459Q540 404 540 307L540 0L390 0L390 285Q390 329 365.50 352.50Q341 376 303 376Q260 376 235 350Q210 324 210 273L210 0L60 0L60 546L0 546L0 640L60 640L60 700L210 700L210 640L350 640L350 546L210 546L210 453Q255 514 353 514Z"  horiz-adv-x="588" vert-adv-y="1000"  />

      
      <glyph glyph-name="uni012A" unicode="&#x012A;" d="M-10 759L-10 879L290 879L290 759L-10 759M60 700L220 700L220 0L60 0L60 700Z"  horiz-adv-x="280" vert-adv-y="1000"  />

      
      <glyph glyph-name="uni012B" unicode="&#x012B;" d="M10 559L10 689L250 689L250 559L10 559M55 0L55 500L205 500L205 0L55 0Z"  horiz-adv-x="260" vert-adv-y="1000"  />

      
      <glyph glyph-name="uni012E" unicode="&#x012E;" d="M212-111Q219-112 235-107L235-197Q193-214 147-214Q103-214 75-191Q47-168 47-123Q47-65 96 0L60 0L60 700L220 700L220 0Q190-46 190-85Q188-111 212-111Z"  horiz-adv-x="280" vert-adv-y="1000"  />

      
      <glyph glyph-name="uni012F" unicode="&#x012F;" d="M193.50 570.50Q193.50 570.50 180.25 557.25Q167 544 130 544Q93 544 66.50 570.50Q40 597 40 634Q40 671 66.50 697.50Q93 724 130 724Q167 724 193.50 697.50Q220 671 220 634Q220 597 193.50 570.50M195-111Q202-112 218-107L218-197Q176-214 130-214Q86-214 58-191Q30-168 30-123Q30-66 76 0L55 0L55 500L205 500L205 0Q173-52 173-85Q171-111 195-111Z"  horiz-adv-x="260" vert-adv-y="1000"  />

      
      <glyph glyph-name="uni0130" unicode="&#x0130;" d="M199.50 770.50Q199.50 770.50 186.75 757.75Q174 745 140 745Q106 745 80.50 770.50Q55 796 55 830Q55 864 80.50 889.50Q106 915 140 915Q174 915 199.50 889.50Q225 864 225 830Q225 796 199.50 770.50M60 700L220 700L220 0L60 0L60 700Z"  horiz-adv-x="280" vert-adv-y="1000"  />

      
      <glyph glyph-name="uni0131" unicode="&#x0131;" d="M55 0L55 500L205 500L205 0L55 0Z"  horiz-adv-x="260" vert-adv-y="1000"  />

      
      <glyph glyph-name="uni0136" unicode="&#x0136;" d="M380 359L626 0L444 0L220 324L220 0L60 0L60 700L220 700L220 396L434 700L616 700L380 359M235-270L245-60L385-60L355-270L235-270Z"  horiz-adv-x="626" vert-adv-y="1000"  />

      
      <glyph glyph-name="uni0137" unicode="&#x0137;" d="M348 250L535 0L365 0L205 221L205 0L55 0L55 700L205 700L205 281L355 500L530 500L348 250M213-270L223-60L363-60L333-270L213-270Z"  horiz-adv-x="535" vert-adv-y="1000"  />

      
      <glyph glyph-name="uni0139" unicode="&#x0139;" d="M322 900L206 760L62 760L142 900L322 900M220 154L470 154L470 0L60 0L60 700L220 700L220 154Z"  horiz-adv-x="480" vert-adv-y="1000"  />

      
      <glyph glyph-name="uni013A" unicode="&#x013A;" d="M52 760L196 760L312 900L132 900L52 760M55 0L55 730L205 730L205 0L55 0Z"  horiz-adv-x="260" vert-adv-y="1000"  />

      
      <glyph glyph-name="uni013B" unicode="&#x013B;" d="M220 154L470 154L470 0L60 0L60 700L220 700L220 154M198-270L208-60L348-60L318-270L198-270Z"  horiz-adv-x="480" vert-adv-y="1000"  />

      
      <glyph glyph-name="uni013C" unicode="&#x013C;" d="M55 0L55 730L205 730L205 0L55 0M173-270L203-60L63-60L53-270L173-270Z"  horiz-adv-x="260" vert-adv-y="1000"  />

      
      <glyph glyph-name="uni013D" unicode="&#x013D;" d="M220 154L470 154L470 0L60 0L60 700L220 700L220 154M431 700L401 510L271 510L281 700L431 700Z"  horiz-adv-x="480" vert-adv-y="1000"  />

      
      <glyph glyph-name="uni013E" unicode="&#x013E;" d="M55 0L55 730L205 730L205 0L55 0M361 520L391 730L251 730L241 520L361 520Z"  horiz-adv-x="381" vert-adv-y="1000"  />

      
      <glyph glyph-name="uni0141" unicode="&#x0141;" d="M240 154L490 154L490 0L80 0L80 199L20 163L20 326L80 362L80 700L240 700L240 457L360 529L360 366L240 294L240 154Z"  horiz-adv-x="500" vert-adv-y="1000"  />

      
      <glyph glyph-name="uni0142" unicode="&#x0142;" d="M260 500L260 357L210 323L210 0L60 0L60 220L10 186L10 329L60 363L60 730L210 730L210 466L260 500Z"  horiz-adv-x="270" vert-adv-y="1000"  />

      
      <glyph glyph-name="uni0143" unicode="&#x0143;" d="M235 760L379 760L495 900L315 900L235 760M450 700L610 700L610 0L490 0L220 380L220 0L60 0L60 700L180 700L450 320L450 700Z"  horiz-adv-x="670" vert-adv-y="1000"  />

      
      <glyph glyph-name="uni0144" unicode="&#x0144;" d="M471 710L355 570L211 570L291 710L471 710M348 514Q428 514 481.50 459Q535 404 535 307L535 0L385 0L385 285Q385 329 360.50 352.50Q336 376 298 376Q255 376 230 350Q205 324 205 273L205 0L55 0L55 500L205 500L205 453Q250 514 348 514Z"  horiz-adv-x="583" vert-adv-y="1000"  />

      
      <glyph glyph-name="uni0145" unicode="&#x0145;" d="M450 700L610 700L610 0L490 0L220 380L220 0L60 0L60 700L180 700L450 320L450 700M383-270L413-60L273-60L263-270L383-270Z"  horiz-adv-x="670" vert-adv-y="1000"  />

      
      <glyph glyph-name="uni0146" unicode="&#x0146;" d="M348 514Q428 514 481.50 459Q535 404 535 307L535 0L385 0L385 285Q385 329 360.50 352.50Q336 376 298 376Q255 376 230 350Q205 324 205 273L205 0L55 0L55 500L205 500L205 453Q250 514 348 514M221-270L231-60L371-60L341-270L221-270Z"  horiz-adv-x="583" vert-adv-y="1000"  />

      
      <glyph glyph-name="uni0147" unicode="&#x0147;" d="M246 750L140 900L285 900L320 845L355 900L500 900L394 750L246 750M450 700L610 700L610 0L490 0L220 380L220 0L60 0L60 700L180 700L450 320L450 700Z"  horiz-adv-x="670" vert-adv-y="1000"  />

      
      <glyph glyph-name="uni0148" unicode="&#x0148;" d="M222 560L116 710L261 710L296 655L331 710L476 710L370 560L222 560M348 514Q428 514 481.50 459Q535 404 535 307L535 0L385 0L385 285Q385 329 360.50 352.50Q336 376 298 376Q255 376 230 350Q205 324 205 273L205 0L55 0L55 500L205 500L205 453Q250 514 348 514Z"  horiz-adv-x="583" vert-adv-y="1000"  />

      
      <glyph glyph-name="uni014A" unicode="&#x014A;" d="M450 700L610 700L610 0Q610-100 548-153.50Q486-207 370-200L370-55Q411-55 430.50-40.50Q450-26 450 10L450 56L220 380L220 0L60 0L60 700L180 700L450 320L450 700Z"  horiz-adv-x="670" vert-adv-y="1000"  />

      
      <glyph glyph-name="uni014B" unicode="&#x014B;" d="M348 514Q428 514 481.50 459Q535 404 535 307L535 0Q535-109 480.50-165Q426-221 315-214L315-70Q349-74 367-58Q385-42 385 0L385 285Q385 329 360.50 352.50Q336 376 298 376Q255 376 230 350Q205 324 205 273L205 0L55 0L55 500L205 500L205 453Q250 514 348 514Z"  horiz-adv-x="583" vert-adv-y="1000"  />

      
      <glyph glyph-name="uni014C" unicode="&#x014C;" d="M244 769L244 889L544 889L544 769L244 769M652 91Q652 91 599 38.50Q546-14 394-14Q242-14 136 91Q30 196 30 350Q30 504 136 609Q242 714 394 714Q546 714 652 609Q758 504 758 350Q758 196 652 91M248.50 200Q248.50 200 277.75 171Q307 142 394 142Q481 142 539.50 200Q598 258 598 350Q598 442 539.50 500Q481 558 394 558Q307 558 248.50 500Q190 442 190 350Q190 258 248.50 200Z"  horiz-adv-x="788" vert-adv-y="1000"  />

      
      <glyph glyph-name="uni014D" unicode="&#x014D;" d="M145 569L145 689L445 689L445 569L145 569M483 62.50Q483 62.50 444.50 24.25Q406-14 295-14Q184-14 107 62.50Q30 139 30 250Q30 361 107 437.50Q184 514 295 514Q406 514 483 437.50Q560 361 560 250Q560 139 483 62.50M213 165Q213 165 229.50 148.50Q246 132 295 132Q344 132 377 165Q410 198 410 250Q410 302 377 335Q344 368 295 368Q246 368 213 335Q180 302 180 250Q180 198 213 165Z"  horiz-adv-x="590" vert-adv-y="1000"  />

      
      <glyph glyph-name="uni0150" unicode="&#x0150;" d="M204 760L352 760L438 900L284 900L204 760M387 760L535 760L631 900L477 900L387 760M652 91Q652 91 599 38.50Q546-14 394-14Q242-14 136 91Q30 196 30 350Q30 504 136 609Q242 714 394 714Q546 714 652 609Q758 504 758 350Q758 196 652 91M248.50 200Q248.50 200 277.75 171Q307 142 394 142Q481 142 539.50 200Q598 258 598 350Q598 442 539.50 500Q481 558 394 558Q307 558 248.50 500Q190 442 190 350Q190 258 248.50 200Z"  horiz-adv-x="788" vert-adv-y="1000"  />

      
      <glyph glyph-name="uni0151" unicode="&#x0151;" d="M105 560L253 560L339 700L185 700L105 560M288 560L436 560L532 700L378 700L288 560M483 62.50Q483 62.50 444.50 24.25Q406-14 295-14Q184-14 107 62.50Q30 139 30 250Q30 361 107 437.50Q184 514 295 514Q406 514 483 437.50Q560 361 560 250Q560 139 483 62.50M213 165Q213 165 229.50 148.50Q246 132 295 132Q344 132 377 165Q410 198 410 250Q410 302 377 335Q344 368 295 368Q246 368 213 335Q180 302 180 250Q180 198 213 165Z"  horiz-adv-x="590" vert-adv-y="1000"  />

      
      <glyph glyph-name="uni0152" unicode="&#x0152;" d="M646 154L886 154L886 0L486 0Q436-14 384-14Q233-14 131.50 90.50Q30 195 30 350Q30 505 131.50 609.50Q233 714 384 714Q436 714 486 700L881 700L881 546L646 546L646 430L856 430L856 278L646 278L646 154M486 157L486 543Q445 558 384 558Q298 558 244 500.50Q190 443 190 350Q190 257 244 199.50Q298 142 384 142Q445 142 486 157Z"  horiz-adv-x="916" vert-adv-y="1000"  />

      
      <glyph glyph-name="uni0153" unicode="&#x0153;" d="M569 190Q596 120 684 120Q750 120 785 158L905 89Q831-14 687-14Q551-14 484 87Q417-14 290-14Q180-14 105 62Q30 138 30 250Q30 362 105 438Q180 514 290 514Q417 514 484 413Q549 514 683 514Q792 514 861 439Q930 364 930 250Q930 218 924 190L569 190M566 304L781 304Q759 381 677 381Q591 381 566 304M213 165Q213 165 229.50 148.50Q246 132 295 132Q344 132 377 165Q410 198 410 250Q410 302 377 335Q344 368 295 368Q246 368 213 335Q180 302 180 250Q180 198 213 165Z"  horiz-adv-x="960" vert-adv-y="1000"  />

      
      <glyph glyph-name="uni0154" unicode="&#x0154;" d="M460 900L344 760L200 760L280 900L460 900M428 0L296 230L220 230L220 0L60 0L60 700L340 700Q440 700 510 630Q580 560 580 460Q580 396 544.50 341.50Q509 287 451 257L600 0L428 0M220 550L220 370L340 370Q373 370 396.50 396Q420 422 420 460Q420 498 396.50 524Q373 550 340 550L220 550Z"  horiz-adv-x="615" vert-adv-y="1000"  />

      
      <glyph glyph-name="uni0155" unicode="&#x0155;" d="M367 700L251 560L107 560L187 700L367 700M205 411Q219 459 261.50 484.50Q304 510 355 510L355 340Q300 349 252.50 321.50Q205 294 205 226L205 0L55 0L55 500L205 500L205 411Z"  horiz-adv-x="370" vert-adv-y="1000"  />

      
      <glyph glyph-name="uni0156" unicode="&#x0156;" d="M451 257L600 0L428 0L296 230L220 230L220 0L60 0L60 700L340 700Q440 700 510 630Q580 560 580 460Q580 396 544.50 341.50Q509 287 451 257M220 550L220 370L340 370Q373 370 396.50 396Q420 422 420 460Q420 498 396.50 524Q373 550 340 550L220 550M248-270L258-60L398-60L368-270L248-270Z"  horiz-adv-x="615" vert-adv-y="1000"  />

      
      <glyph glyph-name="uni0157" unicode="&#x0157;" d="M205 411Q219 459 261.50 484.50Q304 510 355 510L355 340Q300 349 252.50 321.50Q205 294 205 226L205 0L55 0L55 500L205 500L205 411M54-270L64-60L204-60L174-270L54-270Z"  horiz-adv-x="370" vert-adv-y="1000"  />

      
      <glyph glyph-name="uni0158" unicode="&#x0158;" d="M211 750L105 900L250 900L285 845L320 900L465 900L359 750L211 750M428 0L296 230L220 230L220 0L60 0L60 700L340 700Q440 700 510 630Q580 560 580 460Q580 396 544.50 341.50Q509 287 451 257L600 0L428 0M220 550L220 370L340 370Q373 370 396.50 396Q420 422 420 460Q420 498 396.50 524Q373 550 340 550L220 550Z"  horiz-adv-x="615" vert-adv-y="1000"  />

      
      <glyph glyph-name="uni0159" unicode="&#x0159;" d="M118 550L12 700L157 700L192 645L227 700L372 700L266 550L118 550M205 411Q219 459 261.50 484.50Q304 510 355 510L355 340Q300 349 252.50 321.50Q205 294 205 226L205 0L55 0L55 500L205 500L205 411Z"  horiz-adv-x="370" vert-adv-y="1000"  />

      
      <glyph glyph-name="uni015A" unicode="&#x015A;" d="M206 770L350 770L466 910L286 910L206 770M305-14Q198-14 126.50 32.50Q55 79 25 159L163 239Q205 142 310 142Q405 142 405 199Q405 230 374.50 247.50Q344 265 260 288Q216 300 183 315Q150 330 118.50 354.50Q87 379 70.50 416Q54 453 54 501Q54 598 123.50 656Q193 714 289 714Q375 714 441 673.50Q507 633 545 556L410 477Q391 517 363 537.50Q335 558 289 558Q253 558 233.50 542.50Q214 527 214 505Q214 479 238.50 460Q263 441 340 418Q382 405 405 397Q428 389 463.50 370.50Q499 352 517.50 331.50Q536 311 550.50 277.50Q565 244 565 201Q565 101 493 43.50Q421-14 305-14Z"  horiz-adv-x="585" vert-adv-y="1000"  />

      
      <glyph glyph-name="uni015B" unicode="&#x015B;" d="M402 710L286 570L142 570L222 710L402 710M197 354Q197 339 222.50 329.50Q248 320 284 310.50Q320 301 356 286Q392 271 417.50 236.50Q443 202 443 150Q443 69 383 27.50Q323-14 235-14Q77-14 20 105L150 179Q170 120 235 120Q289 120 289 151Q289 166 263.50 176Q238 186 202 195.50Q166 205 130 220.50Q94 236 68.50 269Q43 302 43 350Q43 428 99.50 471Q156 514 239 514Q301 514 352 486.50Q403 459 434 407L306 338Q282 382 239 382Q197 382 197 354Z"  horiz-adv-x="468" vert-adv-y="1000"  />

      
      <glyph glyph-name="uni015E" unicode="&#x015E;" d="M565 201Q565 117 512.50 62Q460 7 371-9L371-46Q396-52 415-71Q434-90 434-123Q434-229 209-216L209-112Q304-119 304-98Q304-83 251-78L251-11Q80 13 25 159L163 239Q205 142 310 142Q405 142 405 199Q405 230 374.50 247.50Q344 265 260 288Q216 300 183 315Q150 330 118.50 354.50Q87 379 70.50 416Q54 453 54 501Q54 598 123.50 656Q193 714 289 714Q375 714 441 673.50Q507 633 545 556L410 477Q391 517 363 537.50Q335 558 289 558Q253 558 233.50 542.50Q214 527 214 505Q214 479 238.50 460Q263 441 340 418Q382 405 405 397Q428 389 463.50 370.50Q499 352 517.50 331.50Q536 311 550.50 277.50Q565 244 565 201Z"  horiz-adv-x="585" vert-adv-y="1000"  />

      
      <glyph glyph-name="uni015F" unicode="&#x015F;" d="M443 150Q443 87 406.50 48Q370 9 309-6L309-46Q334-52 353-71Q372-90 372-123Q372-229 147-216L147-112Q242-119 242-98Q242-83 189-78L189-11Q69 5 20 105L150 179Q170 120 235 120Q289 120 289 151Q289 166 263.50 176Q238 186 202 195.50Q166 205 130 220.50Q94 236 68.50 269Q43 302 43 350Q43 428 99.50 471Q156 514 239 514Q301 514 352 486.50Q403 459 434 407L306 338Q282 382 239 382Q197 382 197 354Q197 339 222.50 329.50Q248 320 284 310.50Q320 301 356 286Q392 271 417.50 236.50Q443 202 443 150Z"  horiz-adv-x="468" vert-adv-y="1000"  />

      
      <glyph glyph-name="uni0160" unicode="&#x0160;" d="M217 760L111 910L256 910L291 855L326 910L471 910L365 760L217 760M340 418Q382 405 405 397Q428 389 463.50 370.50Q499 352 517.50 331.50Q536 311 550.50 277.50Q565 244 565 201Q565 101 493 43.50Q421-14 305-14Q198-14 126.50 32.50Q55 79 25 159L163 239Q205 142 310 142Q405 142 405 199Q405 230 374.50 247.50Q344 265 260 288Q216 300 183 315Q150 330 118.50 354.50Q87 379 70.50 416Q54 453 54 501Q54 598 123.50 656Q193 714 289 714Q375 714 441 673.50Q507 633 545 556L410 477Q391 517 363 537.50Q335 558 289 558Q253 558 233.50 542.50Q214 527 214 505Q214 479 238.50 460Q263 441 340 418Z"  horiz-adv-x="585" vert-adv-y="1000"  />

      
      <glyph glyph-name="uni0161" unicode="&#x0161;" d="M153 560L47 710L192 710L227 655L262 710L407 710L301 560L153 560M197 354Q197 339 222.50 329.50Q248 320 284 310.50Q320 301 356 286Q392 271 417.50 236.50Q443 202 443 150Q443 69 383 27.50Q323-14 235-14Q77-14 20 105L150 179Q170 120 235 120Q289 120 289 151Q289 166 263.50 176Q238 186 202 195.50Q166 205 130 220.50Q94 236 68.50 269Q43 302 43 350Q43 428 99.50 471Q156 514 239 514Q301 514 352 486.50Q403 459 434 407L306 338Q282 382 239 382Q197 382 197 354Z"  horiz-adv-x="468" vert-adv-y="1000"  />

      
      <glyph glyph-name="uni0162" unicode="&#x0162;" d="M530 700L530 546L350 546L350 0L190 0L190 546L10 546L10 700L530 700M198-270L208-60L348-60L318-270L198-270Z"  horiz-adv-x="540" vert-adv-y="1000"  />

      
      <glyph glyph-name="uni0163" unicode="&#x0163;" d="M348 356L245 356L245 179Q245 149 269 141Q293 133 348 136L348 0Q205-15 150 27.50Q95 70 95 179L95 356L15 356L15 500L95 500L95 595L245 640L245 500L348 500L348 356M152-270L162-60L302-60L272-270L152-270Z"  horiz-adv-x="388" vert-adv-y="1000"  />

      
      <glyph glyph-name="uni0164" unicode="&#x0164;" d="M191 750L85 900L230 900L265 845L300 900L445 900L339 750L191 750M530 700L530 546L350 546L350 0L190 0L190 546L10 546L10 700L530 700Z"  horiz-adv-x="540" vert-adv-y="1000"  />

      
      <glyph glyph-name="uni0165" unicode="&#x0165;" d="M296 730L436 730L406 540L286 540L296 730M245 640L245 500L348 500L348 356L245 356L245 179Q245 149 269 141Q293 133 348 136L348 0Q205-15 150 27.50Q95 70 95 179L95 356L15 356L15 500L95 500L95 595L245 640Z"  horiz-adv-x="416" vert-adv-y="1000"  />

      
      <glyph glyph-name="uni0166" unicode="&#x0166;" d="M530 546L350 546L350 412L460 412L460 268L350 268L350 0L190 0L190 268L80 268L80 412L190 412L190 546L10 546L10 700L530 700L530 546Z"  horiz-adv-x="540" vert-adv-y="1000"  />

      
      <glyph glyph-name="uni0167" unicode="&#x0167;" d="M348 356L245 356L245 308L320 308L320 188L245 188L245 179Q245 149 269 141Q293 133 348 136L348 0Q205-15 150 27.50Q95 70 95 179L95 188L40 188L40 308L95 308L95 356L15 356L15 500L95 500L95 595L245 640L245 500L348 500L348 356Z"  horiz-adv-x="388" vert-adv-y="1000"  />

      
      <glyph glyph-name="uni016A" unicode="&#x016A;" d="M175 759L175 879L475 879L475 759L175 759M519 51Q519 51 481 18.50Q443-14 325-14Q207-14 131 51Q55 116 55 226L55 700L215 700L215 240Q215 142 325 142Q435 142 435 240L435 700L595 700L595 226Q595 116 519 51Z"  horiz-adv-x="650" vert-adv-y="1000"  />

      
      <glyph glyph-name="uni016B" unicode="&#x016B;" d="M438 679L438 559L138 559L138 679L438 679M378 500L528 500L528 0L378 0L378 47Q333-14 235-14Q155-14 101.50 41Q48 96 48 193L48 500L198 500L198 215Q198 171 222.50 147.50Q247 124 285 124Q328 124 353 150Q378 176 378 227L378 500Z"  horiz-adv-x="583" vert-adv-y="1000"  />

      
      <glyph glyph-name="uni016E" unicode="&#x016E;" d="M325 705Q267 705 229.50 740.50Q192 776 192 830Q192 884 229.50 919.50Q267 955 325 955Q384 955 421 919.50Q458 884 458 830Q458 776 421 740.50Q384 705 325 705M299 805.50Q299 805.50 303.50 800.75Q308 796 325 796Q342 796 351.50 805.50Q361 815 361 830Q361 845 351.50 854.50Q342 864 325 864Q308 864 299 854.50Q290 845 290 830Q290 815 299 805.50M519 51Q519 51 481 18.50Q443-14 325-14Q207-14 131 51Q55 116 55 226L55 700L215 700L215 240Q215 142 325 142Q435 142 435 240L435 700L595 700L595 226Q595 116 519 51Z"  horiz-adv-x="650" vert-adv-y="1000"  />

      
      <glyph glyph-name="uni016F" unicode="&#x016F;" d="M288 535Q230 535 192.50 570.50Q155 606 155 660Q155 714 192.50 749.50Q230 785 288 785Q347 785 384 749.50Q421 714 421 660Q421 606 384 570.50Q347 535 288 535M314.50 684.50Q314.50 684.50 309.75 689.25Q305 694 288 694Q271 694 262 684.50Q253 675 253 660Q253 645 262 635.50Q271 626 288 626Q305 626 314.50 635.50Q324 645 324 660Q324 675 314.50 684.50M378 500L528 500L528 0L378 0L378 47Q333-14 235-14Q155-14 101.50 41Q48 96 48 193L48 500L198 500L198 215Q198 171 222.50 147.50Q247 124 285 124Q328 124 353 150Q378 176 378 227L378 500Z"  horiz-adv-x="583" vert-adv-y="1000"  />

      
      <glyph glyph-name="uni0170" unicode="&#x0170;" d="M135 750L283 750L369 890L215 890L135 750M318 750L466 750L562 890L408 890L318 750M519 51Q519 51 481 18.50Q443-14 325-14Q207-14 131 51Q55 116 55 226L55 700L215 700L215 240Q215 142 325 142Q435 142 435 240L435 700L595 700L595 226Q595 116 519 51Z"  horiz-adv-x="650" vert-adv-y="1000"  />

      
      <glyph glyph-name="uni0171" unicode="&#x0171;" d="M332 690L246 550L98 550L178 690L332 690M429 550L281 550L371 690L525 690L429 550M378 500L528 500L528 0L378 0L378 47Q333-14 235-14Q155-14 101.50 41Q48 96 48 193L48 500L198 500L198 215Q198 171 222.50 147.50Q247 124 285 124Q328 124 353 150Q378 176 378 227L378 500Z"  horiz-adv-x="583" vert-adv-y="1000"  />

      
      <glyph glyph-name="uni0172" unicode="&#x0172;" d="M435 700L595 700L595 226Q595 110 509 43Q461-1 442.50-29Q424-57 422-85Q421-108 444-111Q451-112 467-107L467-197Q425-214 379-214Q335-214 307-191Q279-168 279-123Q279-73 330-14L325-14Q207-14 131 51Q55 116 55 226L55 700L215 700L215 240Q215 142 325 142Q435 142 435 240L435 700Z"  horiz-adv-x="650" vert-adv-y="1000"  />

      
      <glyph glyph-name="uni0173" unicode="&#x0173;" d="M528 0Q483-50 483-85Q481-111 505-111Q512-112 528-107L528-197Q486-214 440-214Q396-214 368-191Q340-168 340-123Q340-67 404 0L378 0L378 47Q333-14 235-14Q155-14 101.50 41Q48 96 48 193L48 500L198 500L198 215Q198 171 222.50 147.50Q247 124 285 124Q328 124 353 150Q378 176 378 227L378 500L528 500L528 0Z"  horiz-adv-x="583" vert-adv-y="1000"  />

      
      <glyph glyph-name="uni0174" unicode="&#x0174;" d="M533 805L498 750L353 750L459 900L607 900L713 750L568 750L533 805M820 700L988 700L795 0L613 0L499 413L385 0L203 0L10 700L178 700L299 210L434 700L564 700L699 210L820 700Z"  horiz-adv-x="998" vert-adv-y="1000"  />

      
      <glyph glyph-name="uni0175" unicode="&#x0175;" d="M380 605L345 550L200 550L306 700L454 700L560 550L415 550L380 605M605 500L765 500L605 0L465 0L385 267L305 0L165 0L5 500L165 500L237 232L315 500L455 500L533 232L605 500Z"  horiz-adv-x="770" vert-adv-y="1000"  />

      
      <glyph glyph-name="uni0176" unicode="&#x0176;" d="M310 805L275 750L130 750L236 900L384 900L490 750L345 750L310 805M630 700L395 269L395 0L235 0L235 269L0 700L182 700L315 430L448 700L630 700Z"  horiz-adv-x="630" vert-adv-y="1000"  />

      
      <glyph glyph-name="uni0177" unicode="&#x0177;" d="M261 605L226 550L81 550L187 700L335 700L441 550L296 550L261 605M370 500L530 500L359 15Q317-103 248.50-154Q180-205 74-200L74-60Q126-60 154-41.50Q182-23 199 23L0 500L165 500L276 194L370 500Z"  horiz-adv-x="530" vert-adv-y="1000"  />

      
      <glyph glyph-name="uni0178" unicode="&#x0178;" d="M273 762Q273 762 262 751Q251 740 220 740Q189 740 167 762Q145 784 145 815Q145 846 167 868Q189 890 220 890Q251 890 273 868Q295 846 295 815Q295 784 273 762M463 762Q463 762 452 751Q441 740 410 740Q379 740 357 762Q335 784 335 815Q335 846 357 868Q379 890 410 890Q441 890 463 868Q485 846 485 815Q485 784 463 762M630 700L395 269L395 0L235 0L235 269L0 700L182 700L315 430L448 700L630 700Z"  horiz-adv-x="630" vert-adv-y="1000"  />

      
      <glyph glyph-name="uni0179" unicode="&#x0179;" d="M445 900L329 760L185 760L265 900L445 900M242 154L515 154L515 0L35 0L35 124L303 546L40 546L40 700L510 700L510 576L242 154Z"  horiz-adv-x="540" vert-adv-y="1000"  />

      
      <glyph glyph-name="uni017A" unicode="&#x017A;" d="M410 700L294 560L150 560L230 700L410 700M241 140L440 140L440 0L40 0L40 100L229 360L50 360L50 500L430 500L430 400L241 140Z"  horiz-adv-x="475" vert-adv-y="1000"  />

      
      <glyph glyph-name="uni017B" unicode="&#x017B;" d="M335 770.50Q335 770.50 322.50 757.75Q310 745 275 745Q240 745 215 770.50Q190 796 190 830Q190 864 215 889.50Q240 915 275 915Q310 915 335 889.50Q360 864 360 830Q360 796 335 770.50M242 154L515 154L515 0L35 0L35 124L303 546L40 546L40 700L510 700L510 576L242 154Z"  horiz-adv-x="540" vert-adv-y="1000"  />

      
      </font>
</defs>
</svg>
