<svg aria-hidden="true" style="position: absolute; width: 0; height: 0; overflow: hidden;" version="1.1" xmlns="http://www.w3.org/2000/svg" xmlns:xlink="http://www.w3.org/1999/xlink">
<defs>
<symbol id="icon-account" viewBox="0 0 32 32">
<path d="M16 2.667c-7.36 0-13.333 5.973-13.333 13.333s5.973 13.333 13.333 13.333c7.36 0 13.333-5.973 13.333-13.333s-5.973-13.333-13.333-13.333zM9.427 24.373c0.573-1.2 4.067-2.373 6.573-2.373s6.013 1.173 6.573 2.373c-1.813 1.44-4.093 2.293-6.573 2.293s-4.76-0.853-6.573-2.293zM24.48 22.44c-1.907-2.32-6.533-3.107-8.48-3.107s-6.573 0.787-8.48 3.107c-1.36-1.787-2.187-4.013-2.187-6.44 0-5.88 4.787-10.667 10.667-10.667s10.667 4.787 10.667 10.667c0 2.427-0.827 4.653-2.187 6.44zM16 8c-2.587 0-4.667 2.080-4.667 4.667s2.080 4.667 4.667 4.667c2.587 0 4.667-2.080 4.667-4.667s-2.080-4.667-4.667-4.667zM16 14.667c-1.107 0-2-0.893-2-2s0.893-2 2-2c1.107 0 2 0.893 2 2s-0.893 2-2 2z"></path>
</symbol>
<symbol id="icon-arrow_down" viewBox="0 0 21 32">
<path d="M21.333 21.333l-1.88-1.88-7.453 7.44v-26.893h-2.667v26.893l-7.44-7.453-1.893 1.893 10.667 10.667 10.667-10.667z"></path>
</symbol>
<symbol id="icon-arrow_right" viewBox="0 0 32 32">
<path d="M21.333 5.333l-1.88 1.88 7.44 7.453h-26.893v2.667h26.893l-7.453 7.44 1.893 1.893 10.667-10.667-10.667-10.667z"></path>
</symbol>
<symbol id="icon-instagram" viewBox="0 0 32 32">
<path d="M10.4 2.667h11.2c4.271 0 7.733 3.462 7.733 7.733v11.2c0 4.271-3.462 7.733-7.733 7.733h-11.2c-4.271 0-7.733-3.462-7.733-7.733v-11.2c0-4.271 3.462-7.733 7.733-7.733zM10.133 5.333c-2.651 0-4.8 2.149-4.8 4.8v11.733c0 2.651 2.149 4.8 4.8 4.8h11.733c2.651 0 4.8-2.149 4.8-4.8v-11.733c0-2.651-2.149-4.8-4.8-4.8h-11.733zM23 7.333c0.921 0 1.667 0.746 1.667 1.667s-0.746 1.667-1.667 1.667c-0.921 0-1.667-0.746-1.667-1.667s0.746-1.667 1.667-1.667zM16 9.333c3.682 0 6.667 2.985 6.667 6.667s-2.985 6.667-6.667 6.667c-3.682 0-6.667-2.985-6.667-6.667s2.985-6.667 6.667-6.667zM16 12c-2.209 0-4 1.791-4 4s1.791 4 4 4 4-1.791 4-4c0-2.209-1.791-4-4-4z"></path>
</symbol>
<symbol id="icon-twitter" viewBox="0 0 32 32">
<path d="M29.946 8.017c-1.026 0.455-2.129 0.763-3.286 0.901 1.181-0.708 2.089-1.83 2.516-3.166-1.106 0.656-2.33 1.132-3.634 1.389-1.044-1.112-2.531-1.807-4.177-1.807-3.16 0-5.722 2.562-5.722 5.722 0 0.448 0.051 0.885 0.148 1.304-4.756-0.239-8.972-2.517-11.794-5.979-0.493 0.845-0.775 1.828-0.775 2.877 0 1.985 1.010 3.737 2.546 4.763-0.938-0.030-1.82-0.287-2.592-0.716-0.001 0.024-0.001 0.048-0.001 0.072 0 2.773 1.972 5.085 4.59 5.611-0.48 0.131-0.986 0.201-1.508 0.201-0.369 0-0.727-0.036-1.077-0.103 0.728 2.273 2.841 3.928 5.345 3.974-1.958 1.535-4.426 2.45-7.107 2.45-0.462 0-0.917-0.027-1.365-0.080 2.532 1.624 5.54 2.571 8.772 2.571 10.525 0 16.281-8.719 16.281-16.281 0-0.248-0.006-0.495-0.017-0.74 1.118-0.807 2.088-1.815 2.855-2.962z"></path>
</symbol>
</defs>
</svg>
